<?xml version="1.0" standalone="no"?>
<!DOCTYPE svg PUBLIC "-//W3C//DTD SVG 1.1//EN" "http://www.w3.org/Graphics/SVG/1.1/DTD/svg11.dtd" >
<svg xmlns="http://www.w3.org/2000/svg" xmlns:xlink="http://www.w3.org/1999/xlink" version="1.1">
<metadata>
Created by FontForge 20200314 at Fri May 22 20:59:40 2015
 By Unknown
Copyright (c) 2001-2010, Nick Curtis. All Rights Reserved. Unauthorized duplication or redistribution is expressly prohibited.
</metadata>
<defs>
<font id="WigwamNFW00-Regular" horiz-adv-x="248" >
  <font-face 
    font-family="WigwamNFW00-Regular"
    font-weight="400"
    font-stretch="normal"
    units-per-em="2048"
    panose-1="1 0 0 0 0 0 0 0 0 0"
    ascent="1638"
    descent="-410"
    x-height="1389"
    cap-height="1552"
    bbox="-207 -512 2386 2003"
    underline-thickness="102"
    underline-position="-358"
    unicode-range="U+000D-FB02"
  />
<missing-glyph horiz-adv-x="2048" 
 />
    <glyph glyph-name="uniFB01" unicode="fi" horiz-adv-x="1143" 
d="M971 1171v-1087h-140v1087h-505v-559h419v-139h-419v-389h-142v389h-135v139h135v559h-135v142h135v76h142v-76h505v76h140v-76h123v-142h-123z" />
    <glyph glyph-name="uniFB02" unicode="fl" horiz-adv-x="1604" 
d="M971 139v-55h-142v55h-133v142h133v884h-505v-559h421v-139h-421v-383h-142v383h-133v139h133v559h-133v142h133v75h142v-75h505v75h142v-75h219v-142h-219v-884h583v-142h-583z" />
    <glyph glyph-name=".notdef" horiz-adv-x="2048" 
 />
    <glyph glyph-name="glyph1" horiz-adv-x="0" 
 />
    <glyph glyph-name="uni000D" unicode="&#xd;" horiz-adv-x="321" 
 />
    <glyph glyph-name="uni000D" horiz-adv-x="321" 
 />
    <glyph glyph-name="space" unicode=" " horiz-adv-x="321" 
 />
    <glyph glyph-name="exclam" unicode="!" 
d="M49 276v1170h150v-1170h-150zM49 0v170h150v-170h-150z" />
    <glyph glyph-name="quotedbl" unicode="&#x22;" horiz-adv-x="627" 
d="M412 1155l-138 59l166 388l138 -60zM186 1196l-137 59l166 387l137 -59z" />
    <glyph glyph-name="numbersign" unicode="#" horiz-adv-x="829" 
d="M553 674l-94 -365h-154l94 365h-63l-92 -365h-156l94 365h-133v149h172l17 66h-189v149h227l95 363h153l-92 -363h62l92 363h155l-94 -363h133v-149h-172l-16 -66h188v-149h-227zM393 889l-18 -66h61l19 66h-62z" />
    <glyph glyph-name="dollar" unicode="$" horiz-adv-x="862" 
d="M813 530q0 -62 -28 -109q-29 -47 -75 -83q-47 -36 -105 -62q-58 -27 -116 -47v-229h-149v190q-46 -9 -96 -16q-51 -7 -107 -12l-12 147q118 12 215 33v389q-45 24 -96 50t-94 60q-44 33 -72 78q-29 44 -29 105q0 56 28 103q28 46 71 82q42 36 94 63q51 26 98 43v131h149
v-88q56 12 119 22q62 10 131 15l13 -150q-76 -6 -141 -16q-66 -11 -122 -25v-385q44 -23 99 -49q54 -27 103 -61t84 -77zM664 524q-3 18 -24 37q-22 19 -50 36q-28 16 -56 30q-29 14 -45 22v-262q19 7 49 21q29 13 57 31t49 40zM340 1153q-17 -9 -41 -22t-46 -30
q-23 -17 -38 -37q-16 -20 -16 -42q0 -21 16 -39q15 -19 37 -34t46 -27l42 -21v252z" />
    <glyph glyph-name="percent" unicode="%" horiz-adv-x="1698" 
d="M1561 186q-50 -74 -117 -110q-68 -37 -139 -37q-75 0 -137 38q-63 37 -108 102q-46 64 -71 151q-26 87 -26 186q0 100 26 188q26 87 72 152t109 102q62 37 135 37q74 0 137 -37q63 -38 109 -103t72 -152t26 -187q0 -90 -21 -176zM1438 270q31 48 47 113t16 133
q0 64 -14 124q-14 59 -39 105q-26 46 -62 74q-36 27 -79 27q-44 0 -80 -27q-36 -28 -61 -74q-26 -46 -40 -105q-14 -60 -14 -124t14 -123t40 -104q25 -46 61 -73q36 -28 80 -28q35 0 69 20zM604 -43l-139 53l592 1524l139 -53zM647 694q-49 -75 -116 -112q-68 -37 -140 -37
q-73 0 -135 37q-63 37 -109 102q-46 64 -72 152q-26 87 -26 188q0 100 26 188q26 87 72 151t109 101q62 37 135 37q74 0 137 -37t109 -101q46 -65 72 -152t26 -187q0 -91 -21 -177zM524 776q31 48 48 114q16 65 16 134q0 63 -13 122q-14 59 -39 105q-26 46 -62 74
q-36 27 -81 27t-81 -28t-61 -74t-38 -105q-14 -60 -14 -123q0 -64 14 -123t40 -104q25 -46 61 -73q35 -28 79 -28q35 0 69 20z" />
    <glyph glyph-name="ampersand" unicode="&#x26;" horiz-adv-x="1348" 
d="M965 760q31 -54 47 -114q16 -61 16 -124q0 -101 -38 -190q-39 -89 -105 -155q-67 -67 -156 -105q-89 -39 -190 -39t-190 39q-89 38 -156 105q-67 66 -105 155q-39 89 -39 190q0 58 14 112q13 53 37 102q24 48 58 90q34 41 75 75q-23 40 -34 85q-11 44 -11 89q0 65 24 127
q23 61 67 109t106 77t139 29q100 0 184 -48q83 -49 134 -142l-133 -68q-29 53 -78 82t-109 29q-45 0 -79 -16q-34 -17 -57 -44q-24 -27 -36 -62t-12 -71q0 -54 24 -100q42 15 86 24t91 9v-150h-24q-11 0 -23 -2q15 -9 32 -17q16 -8 33 -16l-53 -137q-48 19 -92 44
q-45 24 -82 56q-60 -48 -95 -116q-36 -68 -36 -150q0 -70 27 -131q27 -62 73 -108q46 -47 108 -74t132 -27t132 27q61 27 108 74q46 46 73 108q27 61 27 131q0 34 -7 68q-8 33 -22 65l-184 -170l-101 111l197 180q-13 11 -26 21q-14 10 -29 18l75 131q25 -15 48 -32
q22 -17 42 -37l326 294l100 -108z" />
    <glyph glyph-name="quotesingle" unicode="'" horiz-adv-x="401" 
d="M186 1196l-137 59l166 387l137 -59z" />
    <glyph glyph-name="parenleft" unicode="(" horiz-adv-x="528" 
d="M397 -100q-83 54 -147 141q-65 87 -109 196q-45 109 -68 235q-24 125 -24 257q0 130 23 255q23 124 68 233q44 108 109 195q64 87 148 142l82 -124q-65 -45 -116 -118q-52 -73 -88 -166t-55 -200t-19 -219t19 -219q19 -108 55 -200q36 -93 88 -166q51 -74 116 -117z" />
    <glyph glyph-name="parenright" unicode=")" horiz-adv-x="528" 
d="M49 25q65 43 117 117q52 73 88 166q36 92 55 200q19 107 19 219t-19 219t-55 200t-88 166t-117 118l82 124q83 -55 148 -142q64 -87 109 -195q44 -109 68 -233q23 -125 23 -255q0 -132 -23 -257q-24 -126 -69 -235t-109 -196q-65 -87 -147 -141z" />
    <glyph glyph-name="asterisk" unicode="*" horiz-adv-x="729" 
d="M604 1004l-164 94v-189h-149v189l-166 -94l-76 129l166 94l-164 96l74 129l166 -94v190h149v-190l164 94l74 -129l-164 -96l166 -94z" />
    <glyph glyph-name="plus" unicode="+" horiz-adv-x="1260" 
d="M705 555v-506h-150v506h-506v150h506v503h150v-503h505v-150h-505z" />
    <glyph glyph-name="comma" unicode="," horiz-adv-x="401" 
d="M186 -156l-137 60l166 387l137 -60z" />
    <glyph glyph-name="hyphen" unicode="-" horiz-adv-x="455" 
d="M49 465v149h357v-149h-357z" />
    <glyph glyph-name="period" unicode="." 
d="M49 0v170h150v-170h-150z" />
    <glyph glyph-name="slash" unicode="/" horiz-adv-x="963" 
d="M170 -358l-121 47l746 1890l118 -47z" />
    <glyph glyph-name="zero" unicode="0" horiz-adv-x="1067" 
d="M889 293q-69 -104 -163 -156q-95 -53 -194 -53q-104 0 -192 55q-89 54 -153 148q-65 94 -101 220q-37 126 -37 269t37 269q36 126 101 220q64 94 153 149q88 54 192 54q70 0 134 -24q63 -25 117 -70t98 -108q43 -63 74 -140q30 -77 47 -165q16 -89 16 -185q0 -66 -8 -131
q-9 -66 -25 -128t-40 -119zM772 371q26 39 46 86t34 99q13 51 20 107q7 55 7 111q0 108 -25 208t-71 176t-109 122q-64 45 -142 45q-77 0 -140 -45q-63 -46 -108 -122q-46 -76 -71 -176t-25 -208q0 -109 26 -208q25 -100 71 -175q45 -76 108 -121t139 -45q67 0 129 37z" />
    <glyph glyph-name="one" unicode="1" 
d="M49 0v1552h150v-1552h-150z" />
    <glyph glyph-name="two" unicode="2" horiz-adv-x="928" 
d="M748 4l-277 158q-46 -50 -91 -90t-87 -72l-90 119q32 25 66 54t69 65l-135 77l73 129l164 -94q55 64 108 138q52 73 93 154q41 80 66 166q24 86 24 175q0 51 -15 108q-15 56 -48 104q-33 47 -84 79q-51 31 -123 31q-44 0 -85 -14q-42 -15 -77 -43t-62 -69
q-28 -41 -44 -94l-144 48q25 78 69 138q43 60 98 101q54 40 117 61q62 21 126 21q109 0 189 -44q79 -45 131 -114q51 -69 76 -152q24 -83 24 -161q0 -100 -25 -195q-26 -95 -68 -184t-97 -172q-56 -83 -116 -158l248 -141z" />
    <glyph glyph-name="three" unicode="3" horiz-adv-x="961" 
d="M911 557q0 -101 -38 -190q-39 -89 -105 -155q-66 -67 -155 -105q-89 -39 -189 -39q-54 0 -106 12t-100 35q-49 22 -92 55q-43 32 -77 74l115 96q49 -59 117 -91t143 -32q70 0 132 27q61 26 107 73q46 46 73 108q26 61 26 132q0 84 -35 152t-94 114q-69 -57 -155 -92
q-86 -36 -171 -51l-26 145q45 8 95 25q49 17 95 43q-12 2 -25 2h-24q-34 0 -68 -6l-28 145q24 5 49 8q24 2 49 2q91 0 176 -34q25 47 25 98q0 45 -15 81t-40 62q-26 26 -59 40q-34 14 -71 14q-60 0 -109 -29t-77 -82l-133 68q48 91 133 142q84 50 186 50q70 0 131 -26
q61 -27 106 -74t71 -111t26 -139q0 -48 -11 -89q-12 -42 -34 -79q84 -66 133 -163z" />
    <glyph glyph-name="four" unicode="4" horiz-adv-x="1176" 
d="M856 469v-469h-149v469h-658l658 709v374h149v-213l107 117l110 -102l-217 -236v-500h270v-149h-270zM707 958l-316 -340h316v340z" />
    <glyph glyph-name="five" unicode="5" horiz-adv-x="1053" 
d="M1004 567q0 -103 -39 -193q-40 -91 -108 -159t-159 -107q-91 -40 -194 -40h-381v149h381q72 0 136 28q63 27 111 75t76 112q27 63 27 135q0 58 -22 109q-23 51 -61 89t-89 61q-51 22 -109 22h-249v-70h-150v70h-113v149h113v312h-125v149h125v94h150v-94h397v-149h-397
v-312h249q88 0 167 -34q78 -34 137 -92q59 -59 93 -137z" />
    <glyph glyph-name="six" unicode="6" horiz-adv-x="1274" 
d="M1225 571q0 -104 -37 -194t-102 -156q-66 -67 -155 -105t-194 -38q-122 0 -218 52q-97 51 -164 136q-67 84 -102 192q-36 108 -36 222q-14 -14 -26 -29q-13 -15 -25 -30l-117 90q40 54 86 101t98 87q20 109 65 208t114 176t163 126q93 49 211 59l13 -149q-71 -6 -130 -31
q-59 -26 -107 -66q-48 -41 -84 -94q-36 -54 -60 -116q71 31 147 47t158 16q103 0 195 -40q91 -40 160 -108q68 -69 108 -160zM1075 571q0 73 -27 138q-28 64 -76 113q-48 48 -112 76t-137 28q-96 0 -185 -29t-167 -82q-2 -25 -3 -49t-1 -49q0 -56 9 -114q9 -59 28 -113
t49 -102t71 -84t94 -56q53 -21 119 -21q74 0 136 26t107 73q45 46 70 109z" />
    <glyph glyph-name="seven" unicode="7" horiz-adv-x="961" 
d="M858 1350q-161 -328 -281 -656q-120 -329 -192 -661l-145 33q68 312 176 621q107 308 256 622h-369v-166h-149v166h-105v149h105v94h149v-94h608z" />
    <glyph glyph-name="eight" unicode="8" horiz-adv-x="1018" 
d="M969 514q0 -95 -37 -176q-37 -82 -100 -142t-146 -94q-84 -34 -176 -34t-175 34q-84 34 -147 94q-64 60 -101 142q-38 81 -38 176q0 62 17 119t48 106t74 89q42 40 93 69q-50 45 -78 106q-29 60 -29 130q0 69 27 129q27 59 74 103q46 43 107 68q60 25 128 25
q67 0 128 -25q60 -25 106 -68q46 -44 73 -103q27 -60 27 -129q0 -70 -28 -130q-29 -61 -77 -106q51 -29 93 -69t73 -89q30 -49 47 -106zM694 1133q0 38 -15 71q-16 32 -41 56q-26 23 -59 36t-69 13q-37 0 -70 -13q-34 -13 -59 -36q-26 -24 -41 -56q-16 -33 -16 -71t16 -70
q15 -32 41 -55q25 -24 59 -37q33 -13 70 -13q36 0 69 13t59 37q25 23 41 55zM819 514q0 72 -26 127q-27 54 -71 91q-44 36 -100 55q-56 18 -114 18t-113 -18q-56 -19 -99 -55q-44 -37 -70 -91q-27 -55 -27 -127q0 -64 26 -118q25 -55 68 -94q43 -40 99 -62q56 -23 118 -23
q61 0 117 23q56 22 99 62q43 39 68 94z" />
    <glyph glyph-name="nine" unicode="9" horiz-adv-x="1243" 
d="M1194 870q-70 -87 -164 -165q-14 -121 -60 -235q-46 -115 -122 -204q-76 -90 -181 -144t-237 -54q-15 0 -29 1q-15 1 -30 3l16 147q9 -2 19 -2h20q82 0 152 30q69 29 124 80q54 51 93 119q38 67 59 142q-75 -40 -157 -62t-162 -22q-95 0 -182 37q-88 37 -155 102
q-68 65 -108 153q-41 88 -41 189q0 95 39 181q38 86 105 151q66 65 155 103q88 38 187 38q101 0 188 -39q87 -40 152 -112t106 -173t51 -223q27 27 47 54zM885 780q0 13 1 26t1 25q0 55 -8 112q-9 57 -27 111q-19 53 -47 100q-29 46 -68 81q-40 34 -91 54t-114 20
q-68 0 -128 -26q-61 -26 -106 -70q-46 -45 -72 -104q-27 -59 -27 -126q0 -71 28 -131q28 -61 75 -105q46 -44 107 -69q60 -25 126 -25q48 0 94 10t90 27q43 17 85 40z" />
    <glyph glyph-name="colon" unicode=":" 
d="M49 471v170h150v-170h-150zM49 0v170h150v-170h-150z" />
    <glyph glyph-name="semicolon" unicode=";" horiz-adv-x="401" 
d="M166 471v170h149v-170h-149zM186 -158l-137 60l166 387l137 -60z" />
    <glyph glyph-name="less" unicode="&#x3c;" horiz-adv-x="1182" 
d="M1081 45l-1032 432v135l1032 432l52 -118l-908 -381l908 -381z" />
    <glyph glyph-name="equal" unicode="=" horiz-adv-x="1260" 
d="M49 788v130h1161v-130h-1161zM49 330v129h1161v-129h-1161z" />
    <glyph glyph-name="greater" unicode="&#x3e;" horiz-adv-x="1182" 
d="M49 164l907 381l-907 381l51 118l1033 -432v-135l-1033 -432z" />
    <glyph glyph-name="question" unicode="?" horiz-adv-x="905" 
d="M856 999q0 -77 -30 -145t-81 -119t-119 -80q-68 -30 -145 -30h-198v-303h-150v303h-84v149h84v47h150v-47h198q46 0 87 18t72 49q31 30 49 71t18 87q0 58 -22 110q-23 51 -62 90q-39 38 -91 61q-52 22 -110 22h-139v-98h-150v98h-84v150h84v77h150v-77h139q89 0 168 -34
q79 -35 138 -94t94 -138zM133 0v170h150v-170h-150z" />
    <glyph glyph-name="at" unicode="@" horiz-adv-x="1669" 
d="M1620 883q0 -75 -15 -141q-15 -67 -42 -127q-27 -61 -65 -118q-39 -57 -87 -112h-307v-115h-150v115h-198q-79 0 -149 30t-122 82t-82 122q-30 69 -30 147q0 79 30 149t82 122t122 82t149 30h198v98h150v-98h135v-150h-135v-464h239q66 81 97 167q30 86 30 172
q0 82 -23 155t-64 135q-42 61 -99 110q-58 48 -125 83q-68 34 -144 52t-155 18q-86 0 -169 -24q-83 -25 -156 -69q-74 -44 -135 -105q-62 -61 -106 -133q-45 -73 -70 -155q-25 -83 -25 -169q0 -93 26 -181q25 -88 71 -165q46 -78 110 -142t141 -110q77 -47 164 -72
q87 -26 180 -26q133 0 250 52t211 146l104 -106q-55 -56 -119 -100q-65 -45 -136 -77q-72 -31 -148 -48q-77 -17 -156 -17q-113 0 -220 30q-107 31 -201 87q-94 55 -172 132q-79 77 -135 171q-57 93 -88 199q-32 106 -32 219q0 108 31 211q30 102 85 193q55 90 130 166
q75 75 165 129t191 84q100 30 205 30q99 0 194 -23q94 -23 179 -66q84 -43 156 -104q71 -62 123 -139t82 -168zM954 999h-198q-48 0 -90 -18q-43 -19 -75 -51t-50 -74q-19 -42 -19 -90t19 -90q18 -42 50 -73q31 -32 74 -50t91 -18h198v464z" />
    <glyph glyph-name="A" unicode="A" horiz-adv-x="1266" 
d="M1014 469l178 -469h-160l-178 469h-436l-176 -469h-160l176 469h-209v149h266l242 642l-111 292h160l31 -82l31 82h159l-110 -292l241 -642h250v-149h-194zM475 618h324l-162 431z" />
    <glyph glyph-name="B" unicode="B" horiz-adv-x="1024" 
d="M975 424q0 -74 -28 -139t-76 -113q-49 -48 -114 -76t-139 -28h-264v-68h-149v68h-156v149h156v412h-156v149h156v49h-156v150h156v332h-156v149h156v94h149v-94h230q65 0 123 -25q57 -25 100 -67q42 -43 67 -100q25 -58 25 -123t-25 -122q-25 -58 -67 -101
q-43 -43 -100 -68q-58 -25 -123 -25h-230v-49h264q74 0 139 -28t114 -76q48 -48 76 -112zM750 1143q0 34 -13 64t-35 53q-23 22 -53 36q-31 13 -65 13h-230v-332h230q34 0 65 13q30 13 53 36q22 22 35 52zM825 424q0 42 -16 80q-17 37 -45 65t-66 44t-80 16h-264v-412h264
q43 0 81 16t66 44t44 66z" />
    <glyph glyph-name="C" unicode="C" horiz-adv-x="1296" 
d="M1247 158q-97 -100 -219 -152q-122 -53 -252 -53q-101 0 -194 28q-94 29 -174 82q-81 52 -147 126t-113 164q-48 90 -73 194q-26 103 -26 215q0 103 23 197t66 175q42 81 102 147t134 113q74 46 160 72q85 25 179 25q40 0 81 -5q40 -6 80 -16v82h150v-139q45 -23 85 -50
q40 -28 77 -63l-103 -110q-14 14 -29 26t-30 23v-154h-150v230q-80 24 -159 24q-111 0 -205 -43q-95 -44 -164 -121t-108 -183t-39 -230q0 -139 45 -259q44 -121 122 -210q77 -89 183 -140q105 -51 227 -51q100 0 194 41q94 40 169 117z" />
    <glyph glyph-name="D" unicode="D" horiz-adv-x="1350" 
d="M1276 764q0 -144 -54 -270q-55 -127 -149 -221q-95 -95 -221 -150t-270 -55h-248v-68h-150v68h-135v149h135v1092h-135v149h135v94h150v-94h248q143 0 269 -55t221 -149q94 -95 149 -221zM1126 764q0 112 -43 211t-117 174q-74 74 -173 117t-211 43h-248v-1092h248
q113 0 212 43t173 118q74 74 117 174z" />
    <glyph glyph-name="E" unicode="E" horiz-adv-x="1114" 
d="M360 68v-68h-149v68h-162v149h162v252h-162v149h162v691h-162v149h162v94h149v-94h437v-149h-437v-691h437v-149h-437v-252h705v-149h-705z" />
    <glyph glyph-name="F" unicode="F" horiz-adv-x="918" 
d="M360 469v-469h-149v469h-162v149h162v691h-162v149h162v94h149v-94h508v-149h-508v-691h508v-149h-508z" />
    <glyph glyph-name="G" unicode="G" horiz-adv-x="1436" 
d="M1249 313q-30 -93 -86 -163t-126 -117q-71 -47 -151 -71q-81 -23 -159 -23q-100 0 -189 30t-164 84q-75 53 -135 128q-61 75 -103 164t-64 190q-23 100 -23 206q0 99 20 197q19 98 59 187q39 89 97 165t135 132t172 88t209 32h29v-149h-22q-92 0 -168 -26
q-77 -26 -138 -71q-61 -46 -106 -108q-46 -62 -76 -134q-31 -73 -46 -153t-15 -160q0 -85 17 -166t49 -153q32 -73 79 -134q46 -61 105 -105q58 -45 128 -70t150 -25q52 0 105 14q52 13 100 41q47 28 88 71q41 42 70 99h-494v150h532q2 15 2 30v95h150v-95q0 -15 -2 -30h108
v-150h-137z" />
    <glyph glyph-name="H" unicode="H" horiz-adv-x="1257" 
d="M1118 469v-469h-149v469h-607v-469h-149v469h-164v149h164v934h149v-934h607v934h149v-934h90v-149h-90z" />
    <glyph glyph-name="I" unicode="I" 
d="M49 0v1552h150v-1552h-150z" />
    <glyph glyph-name="J" unicode="J" horiz-adv-x="725" 
d="M676 375q0 -78 -30 -146t-81 -119t-119 -80q-69 -30 -147 -30h-250v150h250q47 0 89 18q41 17 72 48q30 30 48 71t18 88v1145h150v-1145z" />
    <glyph glyph-name="K" unicode="K" horiz-adv-x="1169" 
d="M971 0v57q0 91 -35 172q-35 80 -95 141q-60 60 -140 95t-171 35h-139v-500h-149v500h-193v149h193v31h-193v149h193v723h149v-721q72 8 134 41q61 32 106 83q45 50 71 115q25 64 25 136v346h150v-346q0 -103 -37 -195q-38 -92 -103 -162q-66 -71 -155 -115
q-89 -45 -191 -52v-33h139q81 0 156 -21t141 -60t120 -93q53 -54 92 -119q39 -66 60 -142t21 -157v-57h-149z" />
    <glyph glyph-name="L" unicode="L" horiz-adv-x="1114" 
d="M360 68v-68h-149v68h-162v149h162v1335h149v-1335h705v-149h-705z" />
    <glyph glyph-name="M" unicode="M" horiz-adv-x="1812" 
d="M1610 0l-234 961l-436 -961h-82l-428 940l-227 -940h-154l281 1159l-178 393h163l72 -157l39 157h152l-91 -376l412 -906l420 926l-86 356h153l33 -135l62 135h164l-168 -370l286 -1182h-153z" />
    <glyph glyph-name="N" unicode="N" horiz-adv-x="1548" 
d="M1309 0l-45 55v-55h-152v240l-608 751v-991h-150v1178l-305 374h193l112 -139v139h150v-323l608 -752v1075h152v-1259l235 -293h-190z" />
    <glyph glyph-name="O" unicode="O" horiz-adv-x="1294" 
d="M1067 197q-41 -62 -89 -108q-49 -46 -103 -76q-54 -31 -112 -47q-58 -15 -116 -15q-83 0 -157 29q-75 30 -139 84t-115 129t-87 167q-36 91 -55 196q-20 105 -20 218q0 171 43 321q43 149 119 261t181 177q105 64 230 64q83 0 158 -29q75 -30 139 -84t115 -129
q51 -76 87 -167q36 -92 56 -197q19 -106 19 -219q0 -79 -9 -157q-10 -79 -29 -152q-20 -74 -49 -141zM942 281q32 48 57 106q24 57 40 121q16 63 24 131q8 67 8 135q0 89 -14 174q-14 84 -40 159q-27 75 -64 138q-38 62 -85 108q-47 45 -103 70t-118 25q-63 0 -119 -25
t-103 -70q-47 -46 -84 -108q-38 -63 -64 -138t-40 -159q-14 -85 -14 -174t14 -173q14 -85 40 -160t64 -137q37 -63 84 -108q47 -46 103 -71t119 -25q82 0 159 45z" />
    <glyph glyph-name="P" unicode="P" horiz-adv-x="1087" 
d="M1038 1010q0 -92 -35 -174t-96 -143t-142 -96q-82 -36 -175 -36h-268v-561h-150v561h-123v150h123v598h-123v149h123v94h150v-94h268q93 0 175 -35q81 -36 142 -97t96 -142zM889 1010q0 61 -23 116q-24 54 -65 95t-95 65q-55 23 -116 23h-268v-598h268q61 0 116 24
q54 23 95 64t65 95z" />
    <glyph glyph-name="Q" unicode="Q" horiz-adv-x="1294" 
d="M1067 197q-64 -95 -147 -154q2 -12 2 -26v-25q0 -84 -33 -169q-34 -84 -113 -169l-110 100q51 56 76 109q24 54 30 106q-62 -18 -125 -18q-125 0 -230 65q-106 65 -182 177t-118 262q-43 149 -43 319q0 171 43 321q43 149 119 261t181 177q105 64 230 64q83 0 158 -29
q75 -30 139 -84t115 -129q51 -76 87 -167q36 -92 56 -197q19 -106 19 -219q0 -79 -9 -157q-10 -79 -29 -152q-20 -74 -49 -141zM942 281q31 48 56 106q24 57 40 121q16 63 25 131q8 68 8 137q0 89 -14 174q-14 84 -40 159q-27 75 -64 137q-38 62 -85 107t-103 70t-118 25
q-63 0 -119 -25t-103 -70q-47 -46 -84 -108q-38 -63 -64 -138t-40 -159q-14 -85 -14 -174t14 -173q14 -85 40 -160t64 -137q37 -63 84 -108q47 -46 103 -71t119 -25q26 0 54 5q27 5 53 16q-13 40 -32 81q-20 40 -43 80q-23 39 -48 79q-26 39 -51 77l127 80q49 -77 96 -155
q46 -79 78 -160q17 17 32 36z" />
    <glyph glyph-name="R" unicode="R" horiz-adv-x="1137" 
d="M938 0v86q0 70 -27 133q-28 63 -74 110q-47 46 -110 74q-63 27 -133 27h-240v-430h-149v430h-156v150h156v61h-156v150h156v518h-156v149h156v94h149v-94h224q84 0 159 -32q74 -33 130 -88q55 -56 88 -130q32 -75 32 -159t-32 -158q-33 -75 -88 -130q-56 -56 -130 -88
q-75 -32 -159 -32h-224v-61h240q101 0 191 -39t157 -106q67 -68 106 -158t39 -191v-86h-149zM838 1049q0 54 -20 101q-21 47 -56 83q-36 35 -83 56q-47 20 -101 20h-224v-518h224q54 0 101 21q47 20 83 55q35 35 56 82z" />
    <glyph glyph-name="S" unicode="S" horiz-adv-x="481" 
d="M389 614q22 -52 33 -105q10 -54 10 -108q0 -62 -14 -123t-41 -117t-66 -106t-90 -90l-92 117q75 59 116 143q40 83 40 174q0 81 -33 158l-158 365q-23 52 -34 107q-11 54 -11 108q0 65 15 129q15 63 45 121q29 57 72 108q42 50 98 90l86 -121q-81 -57 -123 -143
q-43 -86 -43 -182q0 -41 8 -80q7 -40 24 -78z" />
    <glyph glyph-name="T" unicode="T" horiz-adv-x="1300" 
d="M725 1309v-1309h-150v1309h-526v149h526v94h150v-94h526v-149h-526z" />
    <glyph glyph-name="U" unicode="U" horiz-adv-x="993" 
d="M852 68v-68h-150v68h-299q-73 0 -137 28q-65 28 -113 76t-76 113t-28 139v1128h150v-1128q0 -43 16 -81t44 -66t65 -44t79 -16h299v1335h150v-1335h92v-149h-92z" />
    <glyph glyph-name="V" unicode="V" horiz-adv-x="1290" 
d="M727 354l152 -354h-162l-72 166l-72 -166h-161l151 354l-514 1198h162l434 -1007l432 1007h164z" />
    <glyph glyph-name="W" unicode="W" horiz-adv-x="1755" 
d="M1333 328l144 -328h-162l-49 109l-33 -109h-156l97 319l-295 674l-297 -674l98 -319h-158l-33 109l-47 -109h-163l145 328l-375 1224h158l309 -1013l281 639l-164 374h162l84 -188l82 188h163l-166 -374l283 -639l309 1013h156z" />
    <glyph glyph-name="X" unicode="X" horiz-adv-x="1126" 
d="M907 0l-344 657l-346 -657h-168l430 819l-383 733h168l299 -573l299 571h168l-383 -731l430 -819h-170z" />
    <glyph glyph-name="Y" unicode="Y" horiz-adv-x="1026" 
d="M846 397v-43q0 -73 -28 -137q-28 -65 -76 -113t-112 -76q-65 -28 -138 -28h-302v150h302q42 0 79 16t65 44t44 65t16 79v43h-293q-73 0 -137 28q-65 28 -113 77q-48 48 -76 113t-28 139v798h150v-798q0 -42 16 -80t44 -66t65 -44q37 -17 79 -17h293v1005h150v-1005h131
v-150h-131z" />
    <glyph glyph-name="Z" unicode="Z" horiz-adv-x="1153" 
d="M289 68l-37 -68h-168l35 68h-70v149h148l577 1186h-553v149h631l45 82h168l-43 -82h57v-149h-137l-575 -1186h737v-149h-815z" />
    <glyph glyph-name="bracketleft" unicode="[" horiz-adv-x="451" 
d="M49 -262v1782h352v-150h-202v-1483h202v-149h-352z" />
    <glyph glyph-name="backslash" unicode="\" horiz-adv-x="963" 
d="M49 1532l119 47l745 -1890l-120 -47z" />
    <glyph glyph-name="bracketright" unicode="]" horiz-adv-x="451" 
d="M49 -262v149h203v1483h-203v150h352v-1782h-352z" />
    <glyph glyph-name="asciicircum" unicode="^" horiz-adv-x="1094" 
d="M932 416l-385 702l-383 -702l-115 61l436 795h125l434 -795z" />
    <glyph glyph-name="underscore" unicode="_" horiz-adv-x="1024" 
d="M0 -92v92h1024v-92h-1024z" />
    <glyph glyph-name="grave" unicode="`" horiz-adv-x="522" 
d="M391 1370l-342 225l82 125l342 -225z" />
    <glyph glyph-name="a" unicode="a" horiz-adv-x="1083" 
d="M870 473l148 -389h-150l-147 389h-352l-146 -389h-149l145 389h-170v141h223l199 523l-96 252h151l19 -52l20 52h152l-96 -252l196 -523h211v-141h-158zM422 614h246l-123 324z" />
    <glyph glyph-name="b" unicode="b" horiz-adv-x="883" 
d="M834 444q0 -63 -24 -118q-24 -56 -65 -97q-41 -42 -96 -66q-56 -24 -119 -24h-211v-55h-141v55h-129v142h129v325h-129v139h129v25h-129v141h129v258h-129v142h129v78h141v-78h183q55 0 104 -21q49 -22 86 -58q37 -37 59 -86q21 -50 21 -106q0 -55 -21 -104
q-22 -49 -59 -86t-86 -58q-49 -22 -104 -22h-183v-25h211q63 0 119 -23q55 -24 96 -65t65 -96zM631 1040q0 27 -10 51q-10 23 -27 41q-18 17 -41 27q-24 10 -51 10h-183v-258h183q27 0 51 10q23 10 41 28q17 17 27 41zM694 444q0 33 -13 63q-14 29 -36 51q-23 22 -52 35
q-30 13 -63 13h-211v-325h211q34 0 64 13q30 12 52 34t35 52z" />
    <glyph glyph-name="c" unicode="c" horiz-adv-x="1112" 
d="M1063 252q-88 -94 -191 -137q-104 -43 -213 -43q-86 0 -164 25q-79 24 -147 68t-123 106q-55 61 -94 135q-39 73 -60 157q-22 84 -22 174q0 83 20 160q19 77 55 144t87 122q50 54 112 93t134 60q71 21 149 21q32 0 64 -3q31 -3 63 -11v66h139v-117q36 -22 71 -45
q34 -24 71 -53l-101 -107q-23 26 -41 37v-119h-139v193q-62 18 -125 18q-90 0 -167 -36q-78 -36 -134 -98q-57 -63 -89 -146q-32 -84 -32 -179q0 -107 37 -202t101 -166q64 -72 151 -114q86 -42 184 -42q82 0 159 33q76 32 143 104z" />
    <glyph glyph-name="d" unicode="d" horiz-adv-x="1133" 
d="M1083 727q0 -81 -21 -156t-59 -140q-38 -66 -91 -119q-53 -54 -118 -92q-65 -39 -139 -60q-75 -21 -155 -21h-199v-55h-139v55h-113v142h113v888h-113v142h113v78h139v-78h199q80 0 154 -21t139 -59q65 -39 119 -92q53 -53 91 -118t59 -139zM942 727q0 91 -35 172
q-35 80 -95 140t-140 95q-81 35 -172 35h-199v-888h199q92 0 173 35q80 35 140 96q60 60 95 142z" />
    <glyph glyph-name="e" unicode="e" horiz-adv-x="956" 
d="M324 139v-55h-142v55h-133v142h133v192h-133v141h133v555h-133v142h133v78h142v-78h362v-142h-362v-555h362v-141h-362v-192h583v-142h-583z" />
    <glyph glyph-name="f" unicode="f" horiz-adv-x="795" 
d="M324 473v-389h-142v389h-133v141h133v555h-133v142h133v78h142v-78h421v-142h-421v-555h421v-141h-421z" />
    <glyph glyph-name="g" unicode="g" horiz-adv-x="1225" 
d="M1059 344q-26 -78 -73 -136q-48 -58 -108 -97t-127 -58q-67 -20 -133 -20q-126 0 -231 55t-180 148t-116 215q-42 122 -42 256q0 82 17 164q16 82 49 157q32 74 81 139q49 64 115 112q66 47 149 74q82 27 181 27h23v-141h-23q-77 0 -140 -21q-64 -21 -114 -58t-87 -87
q-37 -51 -61 -109q-25 -59 -37 -123q-12 -65 -12 -130q0 -107 31 -204t87 -171t135 -118t175 -44q39 0 82 11q43 10 83 32q39 21 72 53q32 32 50 74h-403v141h442q2 11 2 23v80h139v-103h91v-141h-117z" />
    <glyph glyph-name="h" unicode="h" horiz-adv-x="1077" 
d="M954 473v-389h-141v389h-487v-389h-140v389h-137v141h137v775h140v-775h487v775h141v-775h74v-141h-74z" />
    <glyph glyph-name="i" unicode="i" horiz-adv-x="240" 
d="M49 84v1305h141v-1305h-141z" />
    <glyph glyph-name="j" unicode="j" horiz-adv-x="635" 
d="M586 401q0 -65 -25 -123q-26 -58 -69 -101q-44 -44 -102 -69q-58 -26 -124 -26h-217v141h217q37 0 70 14t58 38q24 24 38 57q14 32 14 69v961h140v-961z" />
    <glyph glyph-name="k" unicode="k" horiz-adv-x="1004" 
d="M813 84v55q0 74 -28 140q-28 65 -76 115q-49 49 -114 78q-65 28 -138 28h-109v-416h-139v416h-160v139h160v10h-160v139h160v601h139v-598q56 7 104 34t83 68q35 40 55 92q20 51 20 109v295h142v-295q0 -86 -31 -163t-85 -137q-55 -60 -129 -98t-159 -47v-10h109
q102 0 193 -39q90 -40 158 -108q67 -68 107 -159q39 -91 39 -194v-55h-141z" />
    <glyph glyph-name="l" unicode="l" horiz-adv-x="956" 
d="M324 139v-55h-142v55h-133v142h133v1108h142v-1108h583v-142h-583z" />
    <glyph glyph-name="m" unicode="m" horiz-adv-x="1542" 
d="M1348 84l-189 778l-354 -778h-80l-348 762l-184 -762h-144l236 969l-156 336h158l51 -113l29 113h141l-78 -320l334 -729l340 747l-72 302h144l22 -95l43 95h156l-146 -318l242 -987h-145z" />
    <glyph glyph-name="n" unicode="n" horiz-adv-x="1339" 
d="M1110 86l-27 29v-31h-141v203l-489 604v-807h-140v981l-264 324h180l84 -99v99h140v-273l489 -604v877h141v-1049l207 -254h-180z" />
    <glyph glyph-name="o" unicode="o" horiz-adv-x="1067" 
d="M889 252q-69 -104 -163 -156q-95 -53 -194 -53q-104 0 -192 55q-89 54 -153 148q-65 94 -101 220q-37 126 -37 269t37 269q36 126 101 220q64 94 153 149q88 54 192 54q70 0 134 -24q63 -25 117 -70t98 -108q43 -63 74 -140q30 -77 47 -165q16 -89 16 -185q0 -66 -8 -131
q-9 -66 -25 -128t-40 -119zM772 330q26 39 46 86t34 99q13 51 20 107q7 55 7 111q0 108 -25 208t-71 176t-109 122q-64 45 -142 45q-77 0 -140 -45q-63 -46 -108 -122q-46 -76 -71 -176t-25 -208q0 -109 26 -208q25 -100 71 -175q45 -76 108 -121t139 -45q67 0 129 37z" />
    <glyph glyph-name="p" unicode="p" horiz-adv-x="936" 
d="M887 930q0 -78 -30 -147t-82 -121t-121 -82q-70 -31 -148 -31h-215v-465h-139v465h-103v141h103v479h-103v142h103v78h139v-78h215q78 0 148 -30q69 -30 121 -82t82 -121zM745 930q0 50 -19 94q-19 43 -51 76q-33 32 -76 51q-44 18 -93 18h-215v-479h215q49 0 93 19
q43 19 76 52q32 33 51 77z" />
    <glyph glyph-name="q" unicode="q" horiz-adv-x="1067" 
d="M889 252q-53 -80 -121 -127q2 -11 2 -22v-21q0 -71 -29 -143t-98 -146l-106 92q43 48 63 89t27 81q-47 -12 -90 -12q-105 0 -194 54q-89 53 -154 147q-66 93 -103 220q-37 126 -37 271q0 143 37 269q36 126 101 220q64 94 153 149q88 54 192 54q105 0 195 -54
q89 -55 154 -149q64 -95 101 -221q36 -126 36 -270q0 -66 -8 -131q-8 -66 -24 -127q-16 -62 -40 -118zM772 1141q-49 72 -111 108q-62 35 -129 35q-77 0 -140 -45q-63 -46 -108 -122q-46 -76 -71 -176t-25 -208t25 -208t71 -176t110 -121q63 -46 141 -46q18 0 38 4
q19 4 39 11q-23 65 -62 130q-40 65 -83 134l121 71q42 -66 79 -129q36 -63 62 -129q36 36 64 89q27 52 46 114q19 61 29 128q9 67 9 132q0 113 -26 218z" />
    <glyph glyph-name="r" unicode="r" horiz-adv-x="977" 
d="M786 84v80q0 57 -22 107t-59 88q-38 37 -88 59t-107 22h-193v-356h-139v356h-129v142h129v34h-129v140h129v413h-129v142h129v78h139v-78h179q71 0 135 -27q63 -28 111 -75q47 -48 75 -111q27 -64 27 -135q0 -72 -27 -135q-28 -63 -75 -110q-48 -47 -111 -74
q-64 -28 -135 -28h-179v-34h193q85 0 161 -33q76 -34 133 -91t91 -133q33 -76 33 -161v-80h-142zM702 963q0 43 -16 81q-16 37 -44 65t-65 44q-38 16 -81 16h-179v-413h179q43 0 81 17q37 16 65 44t44 66z" />
    <glyph glyph-name="s" unicode="s" horiz-adv-x="432" 
d="M346 606q19 -43 28 -88q9 -46 9 -92q0 -53 -12 -105t-35 -100q-24 -49 -58 -92q-35 -44 -79 -78l-86 111q63 51 96 119q33 67 33 141q0 67 -27 129l-129 303q-19 43 -28 89q-9 45 -9 91q0 55 13 109t38 104q25 49 63 92q37 43 85 78l82 -110q-69 -51 -105 -122
q-37 -71 -37 -149q0 -32 8 -64q7 -32 19 -61z" />
    <glyph glyph-name="t" unicode="t" horiz-adv-x="1112" 
d="M627 1169v-1085h-142v1085h-436v142h436v78h142v-78h436v-142h-436z" />
    <glyph glyph-name="u" unicode="u" horiz-adv-x="858" 
d="M733 139v-55h-141v55h-240q-62 0 -117 24q-56 24 -97 66q-41 41 -65 97q-24 55 -24 118v945h141v-945q0 -35 13 -64q12 -30 34 -52t52 -34q29 -13 63 -13h240v1108h141v-1108h76v-142h-76z" />
    <glyph glyph-name="v" unicode="v" horiz-adv-x="1116" 
d="M637 387l129 -303h-154l-53 123l-53 -123h-156l129 303l-430 1002h156l354 -822l352 822h156z" />
    <glyph glyph-name="w" unicode="w" horiz-adv-x="1499" 
d="M1139 367l123 -283h-156l-33 74l-22 -74h-146l80 270l-235 541l-236 -541l84 -270h-149l-23 72l-31 -72h-157l124 283l-313 1022h150l252 -826l221 506l-140 320h154l64 -142l63 142h156l-142 -320l222 -506l254 826h147z" />
    <glyph glyph-name="x" unicode="x" horiz-adv-x="979" 
d="M770 84l-281 532l-280 -532h-160l361 688l-318 608l8 9h148l241 -463l242 463h146l12 -9l-320 -608l361 -688h-160z" />
    <glyph glyph-name="y" unicode="y" horiz-adv-x="885" 
d="M727 418v-29q0 -62 -24 -117t-65 -96q-42 -41 -97 -64q-55 -24 -117 -24h-258v139h258q34 0 64 13q29 13 51 35t35 52q12 29 12 62v29h-234q-62 0 -117 24q-56 23 -97 65q-41 41 -65 96t-24 118v668h141v-668q0 -34 13 -63q12 -30 34 -52q22 -23 52 -36q29 -13 63 -13
h234v832h141v-832h109v-139h-109z" />
    <glyph glyph-name="z" unicode="z" horiz-adv-x="989" 
d="M260 139l-33 -55h-155l28 55h-51v142h123l471 968h-453v140h527l37 67h159l-34 -67h41v-140h-117l-469 -968h606v-142h-680z" />
    <glyph glyph-name="braceleft" unicode="{" horiz-adv-x="561" 
d="M379 -254q-43 0 -81 16q-38 17 -66 45q-29 29 -45 67q-17 38 -17 81v541q0 23 -17 41q-18 18 -42 18h-62v150h62q24 0 42 18q17 18 17 41v541q0 43 17 81q16 37 45 66q28 28 66 45q38 16 81 16h133v-149h-133q-25 0 -42 -17q-18 -18 -18 -42v-541q0 -38 -13 -72
q-13 -35 -36 -61q23 -28 36 -62q13 -35 13 -73v-541q0 -25 18 -42q17 -17 42 -17h133v-150h-133z" />
    <glyph glyph-name="bar" unicode="|" horiz-adv-x="229" 
d="M49 -512v2048h131v-2048h-131z" />
    <glyph glyph-name="braceright" unicode="}" horiz-adv-x="561" 
d="M49 -254v150h133q25 0 43 17q17 17 17 42v541q0 38 13 73q13 34 36 62q-23 26 -36 61q-13 34 -13 72v541q0 24 -17 42q-18 17 -43 17h-133v149h133q43 0 81 -16q38 -17 67 -45q28 -29 45 -66q16 -38 16 -81v-541q0 -23 18 -41q17 -18 42 -18h61v-150h-61q-25 0 -42 -18
q-18 -18 -18 -41v-541q0 -43 -16 -81q-17 -38 -45 -67q-29 -28 -67 -45q-38 -16 -81 -16h-133z" />
    <glyph glyph-name="asciitilde" unicode="~" horiz-adv-x="1104" 
d="M1055 686q0 -59 -23 -110q-23 -52 -62 -91q-40 -39 -93 -61q-53 -23 -113 -23q-55 0 -107 21l-262 106q-29 13 -61 13q-33 0 -61 -13q-29 -13 -50 -34q-21 -22 -33 -50t-12 -59h-129q0 57 22 109q21 51 59 90q38 38 90 61q51 23 112 23q29 0 57 -5t55 -16l263 -104
q29 -13 59 -13q35 0 65 13q29 13 50 35q21 21 33 49t12 59h129z" />
    <glyph glyph-name="uni00A0" unicode="&#xa0;" horiz-adv-x="455" 
 />
    <glyph glyph-name="exclamdown" unicode="&#xa1;" 
d="M199 842v-1170h-150v1170h150zM199 1116v-170h-150v170h150z" />
    <glyph glyph-name="cent" unicode="&#xa2;" horiz-adv-x="1012" 
d="M963 393q-70 -74 -161 -114q-92 -41 -194 -41v-236h-151v256q-94 28 -169 85q-76 56 -129 131q-53 74 -81 162q-29 87 -29 179q0 87 28 172t81 157q52 71 128 122t171 69v111h151v-103q13 -2 24 -3q11 -2 23 -5v35h150v-90q31 -15 59 -36t54 -44l-101 -108l-12 8v-72
h-150v154l-22 6q-12 2 -25 4v-805q71 0 135 28q63 28 111 81zM457 1182q-62 -18 -110 -56t-81 -87q-33 -50 -50 -107t-17 -115q0 -62 18 -122q17 -61 50 -114t81 -96t109 -69v766z" />
    <glyph glyph-name="sterling" unicode="&#xa3;" horiz-adv-x="1153" 
d="M750 190l49 -40l-88 -119q-29 21 -59 47q-31 26 -62 55l-207 -74l-51 142l143 51q-56 63 -109 135t-98 150h-219v149h144q-32 77 -51 161q-19 83 -19 165q0 52 11 107t34 108q22 52 56 99t81 83q46 35 105 56q59 20 131 20q65 0 128 -21q63 -22 118 -63q54 -42 97 -102
t68 -138l-141 -45q-17 53 -45 94q-28 40 -63 68q-35 27 -76 41t-84 14q-73 0 -125 -31q-52 -32 -85 -79q-33 -48 -48 -104q-15 -57 -15 -107q0 -82 23 -161q23 -80 55 -149l8 -16h414v-149h-326q42 -63 89 -122q46 -59 96 -110l426 154l49 -142z" />
    <glyph glyph-name="currency" unicode="&#xa4;" horiz-adv-x="1313" 
d="M1264 227q-84 -89 -198 -138q-114 -50 -235 -50q-104 0 -203 36t-183 100q-84 63 -147 152q-64 88 -97 193h-150l68 150h49q0 14 -1 28q-1 13 -1 25h-117l68 149h61q22 111 80 203q57 92 137 158t177 103q97 36 200 36q59 0 117 -11t115 -34l57 125l135 -61l-61 -134
q20 -14 38 -28q17 -14 35 -31l-102 -108q-8 8 -17 15t-18 13l-67 -151l-138 63l76 162q-85 31 -168 31q-75 0 -145 -24q-71 -25 -129 -71q-59 -46 -102 -110q-44 -65 -66 -146h629l-70 -149h-576q0 -12 1 -25q1 -14 3 -28h547l-67 -150h-441q32 -74 82 -135q49 -61 111 -104
q61 -44 132 -68q71 -25 148 -25q88 0 173 37q85 36 151 105z" />
    <glyph glyph-name="yen" unicode="&#xa5;" horiz-adv-x="1178" 
d="M788 543l72 -109l-123 -82l-73 109v-461h-150v461l-72 -109l-125 82l72 109h-340v149h438l13 19l-25 34h-426v150h328l-320 483l125 82l375 -565h66l372 565l125 -82l-319 -483h327v-150h-426l-24 -34l12 -19h438v-149h-340z" />
    <glyph glyph-name="brokenbar" unicode="&#xa6;" horiz-adv-x="229" 
d="M49 678v899h131v-899h-131zM49 -471v1079h131v-1079h-131z" />
    <glyph glyph-name="section" unicode="&#xa7;" horiz-adv-x="836" 
d="M786 782q-6 -91 -49 -152t-108 -95q51 -42 85 -100t34 -126q0 -62 -29 -111q-30 -49 -78 -83q-49 -35 -111 -53q-63 -19 -129 -19q-40 0 -80 7q-41 6 -80 18t-75 30q-36 17 -66 39l80 125q23 -18 51 -31q28 -14 58 -22q29 -8 58 -12t54 -4q40 0 76 9q36 8 63 24t43 38
q15 21 15 47q0 29 -18 58t-49 54q-32 24 -74 42q-43 17 -92 24q-68 9 -126 38q-58 28 -100 70q-42 41 -66 93t-24 109q0 83 45 147q44 64 113 103q-48 42 -78 97q-31 55 -31 118q0 60 27 108t72 83q45 34 104 53q58 18 121 18q60 0 120 -15q59 -16 111 -47l-63 -135
q-37 23 -80 35t-88 12q-35 0 -66 -8q-31 -9 -54 -24q-24 -15 -38 -36q-14 -22 -14 -48t16 -53t44 -50t65 -39q36 -17 78 -22q73 -9 134 -37t105 -70t69 -95zM637 782q0 36 -20 67q-21 30 -53 52q-33 22 -74 35q-41 12 -82 12q-39 0 -75 -9q-36 -10 -65 -28t-47 -43
q-19 -26 -22 -57q0 -36 17 -68q17 -33 48 -57t75 -38q43 -15 95 -15q33 0 69 10q35 9 64 28q29 18 49 46z" />
    <glyph glyph-name="dieresis" unicode="&#xa8;" horiz-adv-x="457" 
d="M260 1339v148h148v-148h-148zM49 1339v148h148v-148h-148z" />
    <glyph glyph-name="copyright" unicode="&#xa9;" horiz-adv-x="1698" 
d="M1649 762q0 -110 -28 -212q-29 -102 -81 -191t-125 -162q-74 -74 -162 -126q-89 -52 -191 -81t-212 -29t-212 29t-191 81t-162 126q-74 73 -126 162t-81 191t-29 212t29 212t81 191q52 88 126 162q73 73 162 125t191 81q102 28 212 28q109 0 211 -28q102 -29 191 -81
t162 -125q73 -74 125 -162q52 -89 81 -191zM1499 762q0 89 -23 172q-24 82 -66 155q-43 72 -102 131t-131 102q-73 42 -155 66q-83 23 -172 23t-172 -23q-84 -23 -156 -65q-72 -43 -131 -102q-60 -60 -102 -132q-43 -72 -66 -155q-24 -83 -24 -172q0 -90 24 -173
q23 -83 66 -155q42 -73 102 -132q59 -60 131 -102t155 -65q83 -24 173 -24q89 0 172 24q83 23 155 65t132 102q59 59 102 132q42 72 65 155zM1233 377q-66 -69 -153 -107q-88 -39 -185 -39q-106 0 -200 43t-164 117q-70 73 -111 171q-41 97 -41 206q0 105 36 196
q36 90 100 158q64 67 150 106q86 38 187 38q42 0 86 -6v57h149v-113q28 -15 54 -33t49 -38l-103 -111v-100h-149v184q-22 6 -43 8t-43 2q-65 0 -123 -25q-59 -25 -103 -71q-45 -46 -71 -109q-27 -64 -27 -141q0 -80 30 -150q30 -71 81 -124q50 -53 117 -84q66 -31 139 -31
q65 0 124 25t105 73z" />
    <glyph glyph-name="ordfeminine" unicode="&#xaa;" horiz-adv-x="698" 
d="M561 973l80 -213h-98l-80 213h-223l-80 -213h-99l80 213h-92v90h127l127 336l-59 153h98l10 -24l8 24h99l-60 -153l127 -336h123v-90h-88zM352 1268l-78 -205h156z" />
    <glyph glyph-name="guillemotleft" unicode="&#xab;" horiz-adv-x="709" 
d="M539 481l-244 330l244 328l120 -88l-178 -240l178 -240zM293 481l-244 330l244 328l121 -88l-178 -240l178 -240z" />
    <glyph glyph-name="logicalnot" unicode="&#xac;" horiz-adv-x="1102" 
d="M924 242v424h-875v129h1004v-553h-129z" />
    <glyph glyph-name="registered" unicode="&#xae;" horiz-adv-x="887" 
d="M838 1137q0 -81 -31 -153q-32 -72 -86 -126t-126 -85q-72 -32 -153 -32t-152 32q-72 31 -125 85q-54 54 -85 126t-31 153t31 153q31 71 85 125q53 53 125 84q71 31 152 31t153 -31t126 -84q54 -54 86 -125zM752 1137q0 63 -24 119q-25 56 -67 98q-42 41 -98 66
q-57 24 -121 24q-63 0 -119 -24q-56 -25 -97 -66q-42 -42 -66 -98q-25 -56 -25 -119q0 -64 25 -120q24 -57 66 -99q41 -42 97 -66q56 -25 119 -25q64 0 121 25q56 24 98 66t67 99zM553 913v72q0 34 -24 58t-58 24h-49v-154h-86v154h-45v86h45v113h-45v86h45v28h86v-28h45
q29 0 55 -11q26 -12 45 -31q19 -20 30 -46q11 -27 11 -56q0 -26 -9 -49q-9 -24 -26 -43q31 -23 49 -58q17 -35 17 -73v-72h-86zM524 1208q0 23 -17 41q-17 17 -40 17h-45v-113h45q23 0 40 16z" />
    <glyph glyph-name="macron" unicode="&#xaf;" horiz-adv-x="596" 
d="M49 1364v100h498v-100h-498z" />
    <glyph glyph-name="degree" unicode="&#xb0;" horiz-adv-x="608" 
d="M559 1180q0 -53 -20 -99t-54 -80q-35 -35 -81 -55q-47 -20 -99 -20q-53 0 -99 20q-47 20 -82 55q-35 34 -55 80t-20 99t20 99t55 81q35 34 82 54q46 20 99 20q52 0 99 -20q46 -20 81 -54q34 -35 54 -81zM459 1180q0 32 -12 61q-13 28 -34 49t-49 33t-59 12q-32 0 -60 -12
q-29 -12 -50 -33t-33 -49q-12 -29 -12 -61t12 -60q12 -29 33 -50t50 -33q28 -13 60 -13q31 0 59 13q28 12 49 33t34 50z" />
    <glyph glyph-name="plusminus" unicode="&#xb1;" horiz-adv-x="1260" 
d="M707 705v-422h-150v422h-508v149h508v422h150v-422h503v-149h-503zM49 0v150h1161v-150h-1161z" />
    <glyph glyph-name="uni00B2" unicode="&#xb2;" horiz-adv-x="555" 
d="M434 772l-153 86q-25 -26 -50 -47q-26 -22 -49 -41l-49 66q19 14 38 30q18 15 38 35l-76 43l41 70l90 -51q31 36 60 77q28 40 51 84q22 44 36 91q13 47 13 96q0 28 -8 60q-9 31 -27 57t-46 44q-28 17 -67 17q-49 0 -88 -31q-39 -32 -61 -92l-78 27q14 44 38 78
q24 33 54 56q30 22 65 33t70 11q60 0 104 -25q43 -25 71 -63q28 -39 42 -85q13 -46 13 -89q0 -55 -14 -107t-37 -101t-53 -94q-31 -45 -64 -85l135 -78z" />
    <glyph glyph-name="uni00B3" unicode="&#xb3;" horiz-adv-x="571" 
d="M522 1077q0 -56 -21 -105t-57 -86q-37 -37 -86 -58t-104 -21q-59 0 -113 26q-55 25 -92 70l62 53q27 -32 64 -49q37 -18 79 -18q38 0 72 15q34 14 60 40q25 25 40 60q14 34 14 73q0 45 -19 83q-20 38 -52 63q-38 -31 -85 -50q-47 -20 -94 -28l-14 80q25 3 52 12t53 25
q-8 0 -14 1q-7 1 -13 1q-11 0 -20 -1q-10 -1 -19 -3l-14 79q12 3 24 4h25q53 0 100 -18q15 24 15 53q0 26 -8 47q-9 20 -23 34t-32 21q-19 7 -40 7q-32 0 -59 -17t-41 -43l-74 37q26 50 73 78q47 27 101 27q39 0 74 -14q34 -15 59 -40q25 -26 40 -61q14 -35 14 -76
q0 -26 -7 -49q-8 -23 -20 -45q46 -35 73 -89z" />
    <glyph glyph-name="acute" unicode="&#xb4;" horiz-adv-x="522" 
d="M131 1341l-82 125l342 226l82 -125z" />
    <glyph glyph-name="mu" unicode="&#xb5;" horiz-adv-x="846" 
d="M797 250q0 -51 -19 -95q-20 -45 -53 -78q-34 -34 -78 -53q-45 -20 -96 -20h-260v-207h-150v207h-92v150h92v948h150v-948h260q40 0 68 28t28 68v852h150v-852z" />
    <glyph glyph-name="paragraph" unicode="&#xb6;" horiz-adv-x="1055" 
d="M530 637q-92 0 -178 36q-87 36 -154 98q-68 62 -108 145q-41 83 -41 178t41 179q40 83 108 145q67 62 154 98q86 36 178 36h74v-915h-74zM838 1403v-1718h-314v149h164v1718h318v-149h-168z" />
    <glyph glyph-name="periodcentered" unicode="&#xb7;" 
d="M49 760v170h150v-170h-150z" />
    <glyph glyph-name="cedilla" unicode="&#xb8;" horiz-adv-x="469" 
d="M418 -238q-6 -36 -23 -67q-17 -30 -42 -52q-26 -21 -58 -34q-33 -12 -70 -12h-176v149h176q39 0 45 37q0 17 -6 29q-7 13 -24 18l-72 20l68 226l143 -43l-29 -94q34 -26 52 -66q18 -39 18 -82v-13z" />
    <glyph glyph-name="uni00B9" unicode="&#xb9;" horiz-adv-x="182" 
d="M49 713v854h84v-854h-84z" />
    <glyph glyph-name="ordmasculine" unicode="&#xba;" horiz-adv-x="698" 
d="M571 848q-43 -66 -101 -98q-59 -33 -122 -33q-65 0 -119 34q-55 33 -95 91t-62 136q-23 78 -23 167t23 167q22 78 62 136t95 92q54 33 119 33t121 -34q55 -34 95 -92t63 -136q22 -78 22 -166q0 -82 -19 -159zM483 907q31 48 47 111q15 63 15 129q0 61 -14 119
q-14 57 -39 101q-26 44 -62 71q-37 26 -82 26t-82 -26q-37 -27 -62 -71q-26 -44 -40 -101q-14 -58 -14 -119q0 -62 14 -120t40 -103t63 -72q36 -27 81 -27q37 0 72 20z" />
    <glyph glyph-name="guillemotright" unicode="&#xbb;" horiz-adv-x="709" 
d="M49 571l178 240l-178 240l121 88l244 -328l-244 -330zM295 571l178 240l-178 240l121 88l243 -328l-243 -330z" />
    <glyph glyph-name="onequarter" unicode="&#xbc;" horiz-adv-x="1323" 
d="M238 0h-189l864 1548h183zM78 483v1067h155v-1067h-155zM1106 295v-295h-158v295h-452l452 489v256h158v-88l35 39l114 -106l-149 -162v-272h168v-156h-168zM948 555q-21 -23 -44 -46q-23 -24 -52 -58h96v104z" />
    <glyph glyph-name="onehalf" unicode="&#xbd;" horiz-adv-x="1370" 
d="M1219 -16l-177 104q-27 -28 -61 -55t-66 -51l-92 127q20 15 37 27q17 11 39 34l-76 41l76 137l111 -63q30 37 59 79q28 42 50 88q21 45 35 94q13 48 13 99q0 27 -7 57q-8 30 -25 55t-43 42q-27 16 -64 16q-43 0 -85 -36q-43 -37 -64 -109l-148 51q18 59 49 106t70 80
q39 32 84 49t90 17q77 0 133 -31q56 -32 93 -80q36 -49 54 -107q17 -58 17 -112q0 -61 -14 -118q-14 -58 -38 -112q-24 -55 -56 -106t-68 -98l151 -88zM88 514v1038h156v-1038h-156zM238 0h-189l864 1548h183z" />
    <glyph glyph-name="threequarters" unicode="&#xbe;" horiz-adv-x="1507" 
d="M1290 295v-295h-157v295h-453l453 489v256h157v-88q10 11 19 21t14 18l117 -106l-150 -162v-272h168v-156h-168zM1133 555q-22 -23 -45 -46q-23 -24 -52 -58h97v104zM666 954q0 -71 -26 -132q-27 -62 -73 -107q-46 -46 -107 -72q-62 -27 -132 -27q-75 0 -149 38
q-74 37 -130 106l119 100q35 -43 77 -66q41 -24 83 -24q37 0 70 15q33 14 58 39q24 25 38 59q14 33 14 71q0 39 -13 71q-14 32 -38 56q-47 -32 -106 -53q-60 -22 -122 -33l-28 152l49 12l-21 121q58 12 97 12q24 0 49 -4q24 -4 47 -10q2 5 2 11v9q0 45 -27 70t-61 25
q-28 0 -56 -21q-28 -22 -47 -57l-137 69q20 39 47 70q27 30 59 52q31 21 65 33q34 11 69 11q51 0 96 -19q44 -19 77 -53t52 -80t19 -100q0 -26 -6 -50q-6 -25 -15 -48q47 -46 77 -109zM451 0h-189l864 1548h183z" />
    <glyph glyph-name="questiondown" unicode="&#xbf;" horiz-adv-x="905" 
d="M49 184q0 78 30 146t81 119t119 81q68 29 145 29h199v301h149v-301h84v-149h-84v-48h-149v48h-199q-46 0 -87 -18t-71 -49q-31 -31 -49 -72t-18 -87q0 -57 23 -108q22 -52 61 -91q39 -38 91 -61q51 -22 109 -22h140v98h149v-98h84v-150h-84v-78h-149v78h-140
q-89 0 -168 34q-79 35 -138 94t-93 138zM772 1182v-170h-149v170h149z" />
    <glyph glyph-name="Agrave" unicode="&#xc0;" horiz-adv-x="1266" 
d="M1014 469l178 -469h-160l-178 469h-436l-176 -469h-160l176 469h-209v149h266l242 642l-111 292h160l31 -82l31 82h159l-110 -292l241 -642h250v-149h-194zM475 618h324l-162 431zM762 1626l-342 225l82 125l342 -225z" />
    <glyph glyph-name="Aacute" unicode="&#xc1;" horiz-adv-x="1266" 
d="M1014 469l178 -469h-160l-178 469h-436l-176 -469h-160l176 469h-209v149h266l242 642l-111 292h160l31 -82l31 82h159l-110 -292l241 -642h250v-149h-194zM475 618h324l-162 431zM502 1597l-82 125l342 226l82 -125z" />
    <glyph glyph-name="Acircumflex" unicode="&#xc2;" horiz-adv-x="1266" 
d="M1014 469l178 -469h-160l-178 469h-436l-176 -469h-160l176 469h-209v149h266l242 642l-111 292h160l31 -82l31 82h159l-110 -292l241 -642h250v-149h-194zM475 618h324l-162 431zM872 1595l-239 179l-240 -179l-88 119l328 246l328 -246z" />
    <glyph glyph-name="Atilde" unicode="&#xc3;" horiz-adv-x="1266" 
d="M1014 469l178 -469h-160l-178 469h-436l-176 -469h-160l176 469h-209v149h266l242 642l-111 292h160l31 -82l31 82h159l-110 -292l241 -642h250v-149h-194zM475 618h324l-162 431zM891 1815q0 -37 -11 -72q-11 -36 -33 -63q-22 -28 -54 -45q-33 -17 -76 -17q-9 0 -19 1
q-10 0 -20 3l-129 31q-18 0 -22 -13q-4 -14 -4 -32h-150q0 34 11 69q10 35 31 63q21 27 54 45q32 17 76 17q11 0 21 -1q9 -1 18 -3l129 -31q2 0 3 -1t3 -1q14 0 19 17q4 16 4 33h149z" />
    <glyph glyph-name="Adieresis" unicode="&#xc4;" horiz-adv-x="1266" 
d="M1014 469l178 -469h-160l-178 469h-436l-176 -469h-160l176 469h-209v149h266l242 642l-111 292h160l31 -82l31 82h159l-110 -292l241 -642h250v-149h-194zM475 618h324l-162 431zM663 1595v148h148v-148h-148zM452 1595v148h148v-148h-148z" />
    <glyph glyph-name="Aring" unicode="&#xc5;" horiz-adv-x="1266" 
d="M1014 469l178 -469h-160l-178 469h-436l-176 -469h-160l176 469h-209v149h266l242 642l-111 292h160l31 -82l31 82h159l-110 -292l241 -642h250v-149h-194zM475 618h324l-162 431zM832 1802q0 -41 -16 -77t-43 -63q-28 -27 -64 -42q-37 -16 -78 -16t-77 16q-36 15 -63 42
t-43 63t-16 77q0 42 16 79q16 36 43 63t63 43t77 16t78 -16q36 -16 64 -43q27 -27 43 -63zM745 1802q0 24 -9 45t-24 37q-16 15 -36 24q-21 9 -45 9q-23 0 -44 -9t-37 -24q-16 -16 -25 -37t-9 -45t9 -44q9 -21 25 -36q16 -16 37 -25t44 -9q24 0 45 9q20 9 36 25q15 15 24 36
z" />
    <glyph glyph-name="AE" unicode="&#xc6;" horiz-adv-x="1821" 
d="M1067 68v-68h-149v68h-162v149h162v252h-408l-272 -479l-129 73l229 406h-289v149h375l393 691h-61v149h162v94h149v-94h436v-149h-436v-691h436v-149h-436v-252h705v-149h-705zM918 1184l-322 -566h322v566z" />
    <glyph glyph-name="Ccedilla" unicode="&#xc7;" horiz-adv-x="1296" 
d="M827 -264q-5 -36 -22 -67q-17 -30 -42 -52q-26 -22 -58 -35q-33 -12 -70 -12h-176v149h176q18 0 30 10t15 27q0 17 -7 29q-7 13 -24 18l-71 21l43 147q-124 29 -228 102q-105 72 -181 177q-77 104 -120 235t-43 277q0 103 23 197t66 175q42 81 102 147t134 113
q74 46 160 72q85 25 179 25q40 0 81 -5q40 -6 80 -16v82h150v-139q45 -23 85 -50q40 -28 77 -63l-103 -110q-14 14 -29 26t-30 23v-154h-150v230q-80 24 -159 24q-111 0 -205 -43q-95 -44 -164 -121t-108 -183t-39 -230q0 -139 45 -259q44 -121 122 -210q77 -89 183 -140
q105 -51 227 -51q100 0 194 41q94 40 169 117l108 -102q-48 -50 -104 -88q-57 -38 -118 -64t-126 -40q-65 -13 -131 -13l-8 -41q34 -26 52 -65q17 -39 17 -83v-13z" />
    <glyph glyph-name="Egrave" unicode="&#xc8;" horiz-adv-x="1114" 
d="M360 68v-68h-149v68h-162v149h162v252h-162v149h162v691h-162v149h162v94h149v-94h437v-149h-437v-691h437v-149h-437v-252h705v-149h-705zM686 1626l-342 225l82 125l342 -225z" />
    <glyph glyph-name="Eacute" unicode="&#xc9;" horiz-adv-x="1114" 
d="M360 68v-68h-149v68h-162v149h162v252h-162v149h162v691h-162v149h162v94h149v-94h437v-149h-437v-691h437v-149h-437v-252h705v-149h-705zM426 1597l-82 125l342 226l82 -125z" />
    <glyph glyph-name="Ecircumflex" unicode="&#xca;" horiz-adv-x="1114" 
d="M360 68v-68h-149v68h-162v149h162v252h-162v149h162v691h-162v149h162v94h149v-94h437v-149h-437v-691h437v-149h-437v-252h705v-149h-705zM796 1595l-239 179l-240 -179l-88 119l328 246l328 -246z" />
    <glyph glyph-name="Edieresis" unicode="&#xcb;" horiz-adv-x="1114" 
d="M360 68v-68h-149v68h-162v149h162v252h-162v149h162v691h-162v149h162v94h149v-94h437v-149h-437v-691h437v-149h-437v-252h705v-149h-705zM588 1595v148h148v-148h-148zM377 1595v148h148v-148h-148z" />
    <glyph glyph-name="Igrave" unicode="&#xcc;" 
d="M49 0v1552h150v-1552h-150zM254 1626l-342 225l82 125l342 -225z" />
    <glyph glyph-name="Iacute" unicode="&#xcd;" 
d="M49 0v1552h150v-1552h-150zM-6 1597l-82 125l342 226l82 -125z" />
    <glyph glyph-name="Icircumflex" unicode="&#xce;" 
d="M49 0v1552h150v-1552h-150zM364 1595l-239 179l-240 -179l-88 119l328 246l328 -246z" />
    <glyph glyph-name="Idieresis" unicode="&#xcf;" 
d="M49 0v1552h150v-1552h-150zM156 1595v148h148v-148h-148zM-55 1595v148h148v-148h-148z" />
    <glyph glyph-name="Eth" unicode="&#xd0;" horiz-adv-x="1325" 
d="M1276 764q0 -144 -54 -270q-55 -127 -149 -221q-95 -95 -221 -150t-270 -55h-248v-68h-150v68h-135v149h135v479h-116v150h116v463h-135v149h135v94h150v-94h248q143 0 269 -55t221 -149q94 -95 149 -221zM334 217h248q113 0 212 43t173 118q74 74 117 174q42 99 42 212
q0 112 -43 211t-117 174q-74 74 -173 117t-211 43h-248v-463h110v-150h-110v-479z" />
    <glyph glyph-name="Ntilde" unicode="&#xd1;" horiz-adv-x="1548" 
d="M1309 0l-45 55v-55h-152v240l-608 751v-991h-150v1178l-305 374h193l112 -139v139h150v-323l608 -752v1075h152v-1259l235 -293h-190zM1032 1815q0 -37 -11 -72q-11 -36 -33 -63q-22 -28 -54 -45q-33 -17 -76 -17q-9 0 -19 1q-10 0 -20 3l-129 31q-18 0 -22 -13
q-4 -14 -4 -32h-150q0 34 11 69q10 35 31 63q21 27 54 45q32 17 76 17q11 0 21 -1q9 -1 18 -3l129 -31q2 0 3 -1t3 -1q14 0 19 17q4 16 4 33h149z" />
    <glyph glyph-name="Ograve" unicode="&#xd2;" horiz-adv-x="1245" 
d="M1042 197q-41 -62 -89 -108q-49 -46 -103 -76q-54 -31 -112 -47q-58 -15 -116 -15q-83 0 -157 29q-75 30 -139 84t-115 129t-87 167q-36 91 -55 196q-20 105 -20 218q0 171 43 321q43 149 119 261t181 177q105 64 230 64q83 0 158 -29q75 -30 139 -84t115 -129
q51 -76 87 -167q36 -92 56 -197q19 -106 19 -219q0 -79 -9 -157q-10 -79 -29 -152q-20 -74 -49 -141zM917 281q32 48 57 106q24 57 40 121q16 63 24 131q8 67 8 135q0 89 -14 174q-14 84 -40 159q-27 75 -64 138q-38 62 -85 108q-47 45 -103 70t-118 25q-63 0 -119 -25
t-103 -70q-47 -46 -84 -108q-38 -63 -64 -138t-40 -159q-14 -85 -14 -174t14 -173q14 -85 40 -160t64 -137q37 -63 84 -108q47 -46 103 -71t119 -25q82 0 159 45zM751 1626l-342 225l82 125l342 -225z" />
    <glyph glyph-name="Oacute" unicode="&#xd3;" horiz-adv-x="1245" 
d="M1042 197q-41 -62 -89 -108q-49 -46 -103 -76q-54 -31 -112 -47q-58 -15 -116 -15q-83 0 -157 29q-75 30 -139 84t-115 129t-87 167q-36 91 -55 196q-20 105 -20 218q0 171 43 321q43 149 119 261t181 177q105 64 230 64q83 0 158 -29q75 -30 139 -84t115 -129
q51 -76 87 -167q36 -92 56 -197q19 -106 19 -219q0 -79 -9 -157q-10 -79 -29 -152q-20 -74 -49 -141zM917 281q32 48 57 106q24 57 40 121q16 63 24 131q8 67 8 135q0 89 -14 174q-14 84 -40 159q-27 75 -64 138q-38 62 -85 108q-47 45 -103 70t-118 25q-63 0 -119 -25
t-103 -70q-47 -46 -84 -108q-38 -63 -64 -138t-40 -159q-14 -85 -14 -174t14 -173q14 -85 40 -160t64 -137q37 -63 84 -108q47 -46 103 -71t119 -25q82 0 159 45zM491 1617l-82 125l342 226l82 -125z" />
    <glyph glyph-name="Ocircumflex" unicode="&#xd4;" horiz-adv-x="1245" 
d="M1042 197q-41 -62 -89 -108q-49 -46 -103 -76q-54 -31 -112 -47q-58 -15 -116 -15q-83 0 -157 29q-75 30 -139 84t-115 129t-87 167q-36 91 -55 196q-20 105 -20 218q0 171 43 321q43 149 119 261t181 177q105 64 230 64q83 0 158 -29q75 -30 139 -84t115 -129
q51 -76 87 -167q36 -92 56 -197q19 -106 19 -219q0 -79 -9 -157q-10 -79 -29 -152q-20 -74 -49 -141zM917 281q32 48 57 106q24 57 40 121q16 63 24 131q8 67 8 135q0 89 -14 174q-14 84 -40 159q-27 75 -64 138q-38 62 -85 108q-47 45 -103 70t-118 25q-63 0 -119 -25
t-103 -70q-47 -46 -84 -108q-38 -63 -64 -138t-40 -159q-14 -85 -14 -174t14 -173q14 -85 40 -160t64 -137q37 -63 84 -108q47 -46 103 -71t119 -25q82 0 159 45zM862 1595l-239 179l-240 -179l-88 119l328 246l328 -246z" />
    <glyph glyph-name="Otilde" unicode="&#xd5;" horiz-adv-x="1245" 
d="M1042 197q-41 -62 -89 -108q-49 -46 -103 -76q-54 -31 -112 -47q-58 -15 -116 -15q-83 0 -157 29q-75 30 -139 84t-115 129t-87 167q-36 91 -55 196q-20 105 -20 218q0 171 43 321q43 149 119 261t181 177q105 64 230 64q83 0 158 -29q75 -30 139 -84t115 -129
q51 -76 87 -167q36 -92 56 -197q19 -106 19 -219q0 -79 -9 -157q-10 -79 -29 -152q-20 -74 -49 -141zM917 281q32 48 57 106q24 57 40 121q16 63 24 131q8 67 8 135q0 89 -14 174q-14 84 -40 159q-27 75 -64 138q-38 62 -85 108q-47 45 -103 70t-118 25q-63 0 -119 -25
t-103 -70q-47 -46 -84 -108q-38 -63 -64 -138t-40 -159q-14 -85 -14 -174t14 -173q14 -85 40 -160t64 -137q37 -63 84 -108q47 -46 103 -71t119 -25q82 0 159 45zM880 1835q0 -37 -11 -72q-11 -36 -33 -63q-22 -28 -54 -45q-33 -17 -76 -17q-9 0 -19 1q-10 0 -20 3l-129 31
q-18 0 -22 -13q-4 -14 -4 -32h-150q0 34 11 69q10 35 31 63q21 27 54 45q32 17 76 17q11 0 21 -1q9 -1 18 -3l129 -31q2 0 3 -1t3 -1q14 0 19 17q4 16 4 33h149z" />
    <glyph glyph-name="Odieresis" unicode="&#xd6;" horiz-adv-x="1245" 
d="M1042 197q-41 -62 -89 -108q-49 -46 -103 -76q-54 -31 -112 -47q-58 -15 -116 -15q-83 0 -157 29q-75 30 -139 84t-115 129t-87 167q-36 91 -55 196q-20 105 -20 218q0 171 43 321q43 149 119 261t181 177q105 64 230 64q83 0 158 -29q75 -30 139 -84t115 -129
q51 -76 87 -167q36 -92 56 -197q19 -106 19 -219q0 -79 -9 -157q-10 -79 -29 -152q-20 -74 -49 -141zM917 281q32 48 57 106q24 57 40 121q16 63 24 131q8 67 8 135q0 89 -14 174q-14 84 -40 159q-27 75 -64 138q-38 62 -85 108q-47 45 -103 70t-118 25q-63 0 -119 -25
t-103 -70q-47 -46 -84 -108q-38 -63 -64 -138t-40 -159q-14 -85 -14 -174t14 -173q14 -85 40 -160t64 -137q37 -63 84 -108q47 -46 103 -71t119 -25q82 0 159 45zM653 1636v148h148v-148h-148zM442 1636v148h148v-148h-148z" />
    <glyph glyph-name="multiply" unicode="&#xd7;" horiz-adv-x="1153" 
d="M997 98l-422 422l-421 -422l-105 105l422 422l-422 424l105 104l421 -422l422 422l107 -104l-422 -424l422 -422z" />
    <glyph glyph-name="Oslash" unicode="&#xd8;" horiz-adv-x="1550" 
d="M1253 1245q48 -105 73 -225q24 -121 24 -246q0 -114 -19 -219q-20 -106 -56 -197q-37 -92 -88 -167q-52 -75 -115 -128q-64 -54 -139 -83t-157 -29q-109 0 -213 54q-104 53 -184 161l-137 -168h-193l248 305q-48 105 -71 226q-23 120 -23 245q0 171 43 321
q43 149 119 261t181 177q105 64 230 64q110 0 214 -53q103 -53 184 -162l137 170h190zM1075 1262q0 2 -4 6q-60 89 -136 135q-77 45 -159 45q-63 0 -119 -25q-56 -26 -103 -71q-47 -46 -84 -109q-38 -63 -64 -138q-26 -76 -40 -160q-14 -85 -14 -173t13 -173t41 -163z
M477 287q0 -2 4 -6q59 -91 137 -136q77 -45 158 -45q63 0 119 25t103 71q47 45 85 108q37 63 63 138t40 160q14 84 14 174q0 88 -13 174q-14 86 -40 164z" />
    <glyph glyph-name="Ugrave" unicode="&#xd9;" horiz-adv-x="993" 
d="M852 68v-68h-150v68h-299q-73 0 -137 28q-65 28 -113 76t-76 113t-28 139v1128h150v-1128q0 -43 16 -81t44 -66t65 -44t79 -16h299v1335h150v-1335h92v-149h-92zM627 1626l-342 225l82 125l342 -225z" />
    <glyph glyph-name="Uacute" unicode="&#xda;" horiz-adv-x="993" 
d="M852 68v-68h-150v68h-299q-73 0 -137 28q-65 28 -113 76t-76 113t-28 139v1128h150v-1128q0 -43 16 -81t44 -66t65 -44t79 -16h299v1335h150v-1335h92v-149h-92zM367 1597l-82 125l342 226l82 -125z" />
    <glyph glyph-name="Ucircumflex" unicode="&#xdb;" horiz-adv-x="993" 
d="M852 68v-68h-150v68h-299q-73 0 -137 28q-65 28 -113 76t-76 113t-28 139v1128h150v-1128q0 -43 16 -81t44 -66t65 -44t79 -16h299v1335h150v-1335h92v-149h-92zM735 1595l-239 179l-240 -179l-88 119l328 246l328 -246z" />
    <glyph glyph-name="Udieresis" unicode="&#xdc;" horiz-adv-x="993" 
d="M852 68v-68h-150v68h-299q-73 0 -137 28q-65 28 -113 76t-76 113t-28 139v1128h150v-1128q0 -43 16 -81t44 -66t65 -44t79 -16h299v1335h150v-1335h92v-149h-92zM528 1595v148h148v-148h-148zM317 1595v148h148v-148h-148z" />
    <glyph glyph-name="Yacute" unicode="&#xdd;" horiz-adv-x="1026" 
d="M846 397v-43q0 -73 -28 -137q-28 -65 -76 -113t-112 -76q-65 -28 -138 -28h-302v150h302q42 0 79 16t65 44t44 65t16 79v43h-293q-73 0 -137 28q-65 28 -113 77q-48 48 -76 113t-28 139v798h150v-798q0 -42 16 -80t44 -66t65 -44q37 -17 79 -17h293v1005h150v-1005h131
v-150h-131zM383 1597l-82 125l342 226l82 -125z" />
    <glyph glyph-name="Thorn" unicode="&#xde;" horiz-adv-x="1087" 
d="M1038 791q0 -93 -35 -175t-96 -142q-61 -61 -142 -96q-82 -36 -175 -36h-268v-350h-150v350h-123v150h123v598h-123v149h123v307h150v-307h268q93 0 175 -35q81 -36 142 -97t96 -142zM889 791q0 61 -23 116q-24 54 -65 95q-41 40 -95 64q-55 24 -116 24h-268v-598h268
q61 0 116 24q54 23 95 64t65 95z" />
    <glyph glyph-name="germandbls" unicode="&#xdf;" horiz-adv-x="698" 
d="M612 537q37 -86 37 -181q0 -53 -12 -105t-35 -100q-24 -49 -58 -92t-79 -77l-86 110q63 51 96 119q33 67 33 141q0 32 -6 65q-7 32 -21 64l-129 303q-37 89 -37 181q0 55 13 109q13 53 38 103q25 49 63 93q37 43 85 78l82 -111q-69 -51 -105 -122t-36 -148q0 -34 7 -65
t19 -60zM346 598q19 -43 28 -88q9 -46 9 -92q0 -53 -12 -105q-12 -53 -35 -101q-24 -49 -58 -92q-35 -43 -79 -77l-86 111q63 51 96 118t33 142q0 64 -27 129l-129 303q-19 43 -28 89q-9 45 -9 91q0 55 13 109t38 104q25 49 63 92q37 43 85 78l82 -111q-69 -51 -105 -122
q-37 -71 -37 -148q0 -34 8 -65q7 -31 19 -60z" />
    <glyph glyph-name="agrave" unicode="&#xe0;" horiz-adv-x="1083" 
d="M870 473l148 -389h-150l-147 389h-352l-146 -389h-149l145 389h-170v141h223l199 523l-96 252h151l19 -52l20 52h152l-96 -252l196 -523h211v-141h-158zM422 614h246l-123 324zM672 1394l-342 225l82 125l342 -225z" />
    <glyph glyph-name="aacute" unicode="&#xe1;" horiz-adv-x="1083" 
d="M870 473l148 -389h-150l-147 389h-352l-146 -389h-149l145 389h-170v141h223l199 523l-96 252h151l19 -52l20 52h152l-96 -252l196 -523h211v-141h-158zM422 614h246l-123 324zM412 1394l-82 125l342 226l82 -125z" />
    <glyph glyph-name="acircumflex" unicode="&#xe2;" horiz-adv-x="1083" 
d="M870 473l148 -389h-150l-147 389h-352l-146 -389h-149l145 389h-170v141h223l199 523l-96 252h151l19 -52l20 52h152l-96 -252l196 -523h211v-141h-158zM422 614h246l-123 324zM784 1349l-239 179l-240 -179l-88 119l328 246l328 -246z" />
    <glyph glyph-name="atilde" unicode="&#xe3;" horiz-adv-x="1083" 
d="M870 473l148 -389h-150l-147 389h-352l-146 -389h-149l145 389h-170v141h223l199 523l-96 252h151l19 -52l20 52h152l-96 -252l196 -523h211v-141h-158zM422 614h246l-123 324zM800 1607q0 -37 -11 -72q-11 -36 -33 -63q-22 -28 -54 -45q-33 -17 -76 -17q-9 0 -19 1
q-10 0 -20 3l-129 31q-18 0 -22 -13q-4 -14 -4 -32h-150q0 34 11 69q10 35 31 63q21 27 54 45q32 17 76 17q11 0 21 -1q9 -1 18 -3l129 -31q2 0 3 -1t3 -1q14 0 19 17q4 16 4 33h149z" />
    <glyph glyph-name="adieresis" unicode="&#xe4;" horiz-adv-x="1083" 
d="M870 473l148 -389h-150l-147 389h-352l-146 -389h-149l145 389h-170v141h223l199 523l-96 252h151l19 -52l20 52h152l-96 -252l196 -523h211v-141h-158zM422 614h246l-123 324zM577 1403v148h148v-148h-148zM366 1403v148h148v-148h-148z" />
    <glyph glyph-name="aring" unicode="&#xe5;" horiz-adv-x="1083" 
d="M870 473l148 -389h-150l-147 389h-352l-146 -389h-149l145 389h-170v141h223l199 523l-96 252h151l19 -52l20 52h152l-96 -252l196 -523h211v-141h-158zM422 614h246l-123 324zM744 1593q0 -41 -16 -77t-43 -63q-28 -27 -64 -42q-37 -16 -78 -16t-77 16q-36 15 -63 42
t-43 63t-16 77q0 42 16 79q16 36 43 63t63 43t77 16t78 -16q36 -16 64 -43q27 -27 43 -63zM657 1593q0 24 -9 45t-24 37q-16 15 -36 24q-21 9 -45 9q-23 0 -44 -9t-37 -24q-16 -16 -25 -37t-9 -45t9 -44q9 -21 25 -36q16 -16 37 -25t44 -9q24 0 45 9q20 9 36 25q15 15 24 36
z" />
    <glyph glyph-name="ae" unicode="&#xe6;" horiz-adv-x="1544" 
d="M911 139v-55h-141v55h-133v142h133v192h-326l-225 -399l-121 69l187 330h-236v141h316l319 555h-47v142h133v78h141v-78h363v-142h-363v-555h363v-141h-363v-192h584v-142h-584zM770 1047l-246 -433h246v433z" />
    <glyph glyph-name="ccedilla" unicode="&#xe7;" horiz-adv-x="1112" 
d="M739 -238q-5 -36 -22 -67q-17 -30 -42 -52q-26 -21 -58 -34q-33 -12 -70 -12h-176v149h176q18 0 30 10t15 27q0 17 -7 29q-7 13 -24 18l-72 20l46 152q-106 24 -195 85q-90 60 -154 147q-65 87 -101 195q-36 107 -36 224q0 83 20 160q19 77 55 144t87 122q50 54 112 93
t134 60q71 21 149 21q32 0 64 -3q31 -3 63 -11v66h139v-117q36 -22 71 -45q34 -24 71 -53l-101 -107q-23 26 -41 37v-119h-139v193q-62 18 -125 18q-90 0 -167 -36q-78 -36 -134 -98q-57 -63 -89 -146q-32 -84 -32 -179q0 -107 37 -202t101 -166q64 -72 151 -114
q86 -42 184 -42q82 0 159 33q76 32 143 104l102 -98q-84 -88 -179 -130q-96 -43 -198 -48l-14 -51q34 -26 52 -66q17 -39 17 -82v-13z" />
    <glyph glyph-name="egrave" unicode="&#xe8;" horiz-adv-x="956" 
d="M324 139v-55h-142v55h-133v142h133v192h-133v141h133v555h-133v142h133v78h142v-78h362v-142h-362v-555h362v-141h-362v-192h583v-142h-583zM608 1370l-342 225l82 125l342 -225z" />
    <glyph glyph-name="eacute" unicode="&#xe9;" horiz-adv-x="956" 
d="M324 139v-55h-142v55h-133v142h133v192h-133v141h133v555h-133v142h133v78h142v-78h362v-142h-362v-555h362v-141h-362v-192h583v-142h-583zM369 1348l-82 125l342 226l82 -125z" />
    <glyph glyph-name="ecircumflex" unicode="&#xea;" horiz-adv-x="956" 
d="M324 139v-55h-142v55h-133v142h133v192h-133v141h133v555h-133v142h133v78h142v-78h362v-142h-362v-555h362v-141h-362v-192h583v-142h-583zM661 1396l-239 179l-240 -179l-88 119l328 246l328 -246z" />
    <glyph glyph-name="edieresis" unicode="&#xeb;" horiz-adv-x="956" 
d="M324 139v-55h-142v55h-133v142h133v192h-133v141h133v555h-133v142h133v78h142v-78h362v-142h-362v-555h362v-141h-362v-192h583v-142h-583zM462 1405v148h148v-148h-148zM251 1405v148h148v-148h-148z" />
    <glyph glyph-name="igrave" unicode="&#xec;" horiz-adv-x="240" 
d="M49 84v1305h141v-1305h-141zM250 1372l-342 225l82 125l342 -225z" />
    <glyph glyph-name="iacute" unicode="&#xed;" horiz-adv-x="240" 
d="M49 84v1305h141v-1305h-141zM-10 1361l-82 125l342 226l82 -125z" />
    <glyph glyph-name="icircumflex" unicode="&#xee;" horiz-adv-x="240" 
d="M49 84v1305h141v-1305h-141zM360 1339l-239 179l-240 -179l-88 119l328 246l328 -246z" />
    <glyph glyph-name="idieresis" unicode="&#xef;" horiz-adv-x="240" 
d="M49 84v1305h141v-1305h-141zM151 1400v148h148v-148h-148zM-60 1400v148h148v-148h-148z" />
    <glyph glyph-name="eth" unicode="&#xf0;" horiz-adv-x="1137" 
d="M1087 727q0 -81 -21 -156t-59 -140q-38 -66 -91 -119q-53 -54 -118 -92q-65 -39 -139 -60q-75 -21 -155 -21h-199v-55h-139v55h-113v142h113v344h-117v149h117v395h-113v142h113v78h139v-78h199q80 0 154 -21t139 -59q65 -39 119 -92q53 -53 91 -118t59 -139zM946 727
q0 91 -35 172q-35 80 -95 140t-140 95q-81 35 -172 35h-199v-395h121v-149h-121v-344h199q92 0 173 35q80 35 140 96q60 60 95 142z" />
    <glyph glyph-name="ntilde" unicode="&#xf1;" horiz-adv-x="1339" 
d="M1110 86l-27 29v-31h-141v203l-489 604v-807h-140v981l-264 324h180l84 -99v99h140v-273l489 -604v877h141v-1049l207 -254h-180zM947 1609q0 -37 -11 -72q-11 -36 -33 -63q-22 -28 -54 -45q-33 -17 -76 -17q-9 0 -19 1q-10 0 -20 3l-129 31q-18 0 -22 -13q-4 -14 -4 -32
h-150q0 34 11 69q10 35 31 63q21 27 54 45q32 17 76 17q11 0 21 -1q9 -1 18 -3l129 -31q2 0 3 -1t3 -1q14 0 19 17q4 16 4 33h149z" />
    <glyph glyph-name="ograve" unicode="&#xf2;" horiz-adv-x="1067" 
d="M889 252q-69 -104 -163 -156q-95 -53 -194 -53q-104 0 -192 55q-89 54 -153 148q-65 94 -101 220q-37 126 -37 269t37 269q36 126 101 220q64 94 153 149q88 54 192 54q70 0 134 -24q63 -25 117 -70t98 -108q43 -63 74 -140q30 -77 47 -165q16 -89 16 -185q0 -66 -8 -131
q-9 -66 -25 -128t-40 -119zM772 330q26 39 46 86t34 99q13 51 20 107q7 55 7 111q0 108 -25 208t-71 176t-109 122q-64 45 -142 45q-77 0 -140 -45q-63 -46 -108 -122q-46 -76 -71 -176t-25 -208q0 -109 26 -208q25 -100 71 -175q45 -76 108 -121t139 -45q67 0 129 37z
M696 1408l-342 225l82 125l342 -225z" />
    <glyph glyph-name="oacute" unicode="&#xf3;" horiz-adv-x="1067" 
d="M889 252q-69 -104 -163 -156q-95 -53 -194 -53q-104 0 -192 55q-89 54 -153 148q-65 94 -101 220q-37 126 -37 269t37 269q36 126 101 220q64 94 153 149q88 54 192 54q70 0 134 -24q63 -25 117 -70t98 -108q43 -63 74 -140q30 -77 47 -165q16 -89 16 -185q0 -66 -8 -131
q-9 -66 -25 -128t-40 -119zM772 330q26 39 46 86t34 99q13 51 20 107q7 55 7 111q0 108 -25 208t-71 176t-109 122q-64 45 -142 45q-77 0 -140 -45q-63 -46 -108 -122q-46 -76 -71 -176t-25 -208q0 -109 26 -208q25 -100 71 -175q45 -76 108 -121t139 -45q67 0 129 37z
M355 1397l-82 125l342 226l82 -125z" />
    <glyph glyph-name="ocircumflex" unicode="&#xf4;" horiz-adv-x="1067" 
d="M889 252q-69 -104 -163 -156q-95 -53 -194 -53q-104 0 -192 55q-89 54 -153 148q-65 94 -101 220q-37 126 -37 269t37 269q36 126 101 220q64 94 153 149q88 54 192 54q70 0 134 -24q63 -25 117 -70t98 -108q43 -63 74 -140q30 -77 47 -165q16 -89 16 -185q0 -66 -8 -131
q-9 -66 -25 -128t-40 -119zM772 330q26 39 46 86t34 99q13 51 20 107q7 55 7 111q0 108 -25 208t-71 176t-109 122q-64 45 -142 45q-77 0 -140 -45q-63 -46 -108 -122q-46 -76 -71 -176t-25 -208q0 -109 26 -208q25 -100 71 -175q45 -76 108 -121t139 -45q67 0 129 37z
M772 1355l-239 179l-240 -179l-88 119l328 246l328 -246z" />
    <glyph glyph-name="otilde" unicode="&#xf5;" horiz-adv-x="1067" 
d="M889 252q-69 -104 -163 -156q-95 -53 -194 -53q-104 0 -192 55q-89 54 -153 148q-65 94 -101 220q-37 126 -37 269t37 269q36 126 101 220q64 94 153 149q88 54 192 54q70 0 134 -24q63 -25 117 -70t98 -108q43 -63 74 -140q30 -77 47 -165q16 -89 16 -185q0 -66 -8 -131
q-9 -66 -25 -128t-40 -119zM772 330q26 39 46 86t34 99q13 51 20 107q7 55 7 111q0 108 -25 208t-71 176t-109 122q-64 45 -142 45q-77 0 -140 -45q-63 -46 -108 -122q-46 -76 -71 -176t-25 -208q0 -109 26 -208q25 -100 71 -175q45 -76 108 -121t139 -45q67 0 129 37z
M780 1631q0 -37 -11 -72q-11 -36 -33 -63q-22 -28 -54 -45q-33 -17 -76 -17q-9 0 -19 1q-10 0 -20 3l-129 31q-18 0 -22 -13q-4 -14 -4 -32h-150q0 34 11 69q10 35 31 63q21 27 54 45q32 17 76 17q11 0 21 -1q9 -1 18 -3l129 -31q2 0 3 -1t3 -1q14 0 19 17q4 16 4 33h149z
" />
    <glyph glyph-name="odieresis" unicode="&#xf6;" horiz-adv-x="1067" 
d="M889 252q-69 -104 -163 -156q-95 -53 -194 -53q-104 0 -192 55q-89 54 -153 148q-65 94 -101 220q-37 126 -37 269t37 269q36 126 101 220q64 94 153 149q88 54 192 54q70 0 134 -24q63 -25 117 -70t98 -108q43 -63 74 -140q30 -77 47 -165q16 -89 16 -185q0 -66 -8 -131
q-9 -66 -25 -128t-40 -119zM772 330q26 39 46 86t34 99q13 51 20 107q7 55 7 111q0 108 -25 208t-71 176t-109 122q-64 45 -142 45q-77 0 -140 -45q-63 -46 -108 -122q-46 -76 -71 -176t-25 -208q0 -109 26 -208q25 -100 71 -175q45 -76 108 -121t139 -45q67 0 129 37z
M557 1442v148h148v-148h-148zM346 1442v148h148v-148h-148z" />
    <glyph glyph-name="divide" unicode="&#xf7;" horiz-adv-x="1260" 
d="M760 950q0 -27 -10 -51q-11 -25 -29 -43t-41 -28q-24 -11 -51 -11q-28 0 -52 11q-24 10 -42 28t-28 43q-11 24 -11 51q0 28 11 52q10 24 28 42t42 29q24 10 52 10q27 0 51 -10q24 -11 42 -29q18 -19 28 -43zM49 553v149h1161v-149h-1161zM760 301q0 -28 -10 -52
q-11 -24 -29 -42t-41 -28q-24 -11 -51 -11q-28 0 -52 11q-24 10 -42 28t-28 42q-11 24 -11 52t11 52q10 24 28 42t42 29q24 10 52 10q27 0 51 -10q24 -11 42 -29q18 -19 28 -43z" />
    <glyph glyph-name="oslash" unicode="&#xf8;" horiz-adv-x="1339" 
d="M1077 1126q38 -86 58 -186t20 -203q0 -144 -36 -270q-37 -126 -102 -220q-65 -95 -154 -149q-89 -55 -193 -55q-90 0 -176 43t-154 131l-111 -135h-180l213 262q-38 88 -58 188t-20 205q0 143 37 269q37 125 102 218t154 147t193 54q91 0 176 -43t153 -131l111 138h180z
M909 1141q-49 72 -111 108q-62 35 -128 35q-78 0 -141 -45q-64 -46 -109 -122q-45 -77 -69 -177q-25 -100 -25 -209q0 -68 10 -134q9 -66 29 -126zM975 999q-137 -168 -230 -282q-94 -115 -154 -189q-61 -74 -93 -114q-33 -40 -47 -58q-15 -18 -17 -21q-3 -3 -2 -3
q50 -72 112 -109t128 -37q77 0 140 45t108 121q45 75 70 174q24 99 24 207q0 69 -9 137z" />
    <glyph glyph-name="ugrave" unicode="&#xf9;" horiz-adv-x="858" 
d="M733 139v-55h-141v55h-240q-62 0 -117 24q-56 24 -97 66q-41 41 -65 97q-24 55 -24 118v945h141v-945q0 -35 13 -64q12 -30 34 -52t52 -34q29 -13 63 -13h240v1108h141v-1108h76v-142h-76zM559 1370l-342 225l82 125l342 -225z" />
    <glyph glyph-name="uacute" unicode="&#xfa;" horiz-adv-x="858" 
d="M733 139v-55h-141v55h-240q-62 0 -117 24q-56 24 -97 66q-41 41 -65 97q-24 55 -24 118v945h141v-945q0 -35 13 -64q12 -30 34 -52t52 -34q29 -13 63 -13h240v1108h141v-1108h76v-142h-76zM299 1341l-82 125l342 226l82 -125z" />
    <glyph glyph-name="ucircumflex" unicode="&#xfb;" horiz-adv-x="858" 
d="M733 139v-55h-141v55h-240q-62 0 -117 24q-56 24 -97 66q-41 41 -65 97q-24 55 -24 118v945h141v-945q0 -35 13 -64q12 -30 34 -52t52 -34q29 -13 63 -13h240v1108h141v-1108h76v-142h-76zM646 1402l-239 179l-240 -179l-88 119l328 246l328 -246z" />
    <glyph glyph-name="udieresis" unicode="&#xfc;" horiz-adv-x="858" 
d="M733 139v-55h-141v55h-240q-62 0 -117 24q-56 24 -97 66q-41 41 -65 97q-24 55 -24 118v945h141v-945q0 -35 13 -64q12 -30 34 -52t52 -34q29 -13 63 -13h240v1108h141v-1108h76v-142h-76zM430 1408v148h148v-148h-148zM219 1408v148h148v-148h-148z" />
    <glyph glyph-name="yacute" unicode="&#xfd;" horiz-adv-x="885" 
d="M727 418v-29q0 -62 -24 -117t-65 -96q-42 -41 -97 -64q-55 -24 -117 -24h-258v139h258q34 0 64 13q29 13 51 35t35 52q12 29 12 62v29h-234q-62 0 -117 24q-56 23 -97 65q-41 41 -65 96t-24 118v668h141v-668q0 -34 13 -63q12 -30 34 -52q22 -23 52 -36q29 -13 63 -13
h234v832h141v-832h109v-139h-109zM311 1341l-82 125l342 226l82 -125z" />
    <glyph glyph-name="thorn" unicode="&#xfe;" horiz-adv-x="936" 
d="M887 748q0 -78 -30 -147t-82 -120q-52 -52 -121 -82q-70 -30 -148 -30h-215v-285h-139v285h-103v139h103v481h-103v139h103v256h139v-256h215q78 0 148 -30q69 -30 121 -82t82 -121zM745 748q0 50 -19 94t-51 77q-33 32 -76 51q-44 19 -93 19h-215v-481h215q49 0 93 19
q43 19 76 52q32 32 51 76z" />
    <glyph glyph-name="ydieresis" unicode="&#xff;" horiz-adv-x="885" 
d="M727 418v-29q0 -62 -24 -117t-65 -96q-42 -41 -97 -64q-55 -24 -117 -24h-258v139h258q34 0 64 13q29 13 51 35t35 52q12 29 12 62v29h-234q-62 0 -117 24q-56 23 -97 65q-41 41 -65 96t-24 118v668h141v-668q0 -34 13 -63q12 -30 34 -52q22 -23 52 -36q29 -13 63 -13
h234v832h141v-832h109v-139h-109zM420 1401v148h148v-148h-148zM209 1401v148h148v-148h-148z" />
    <glyph glyph-name="Abreve" unicode="&#x102;" horiz-adv-x="1266" 
d="M1014 469l178 -469h-160l-178 469h-436l-176 -469h-160l176 469h-209v149h266l242 642l-111 292h160l31 -82l31 82h159l-110 -292l241 -642h250v-149h-194zM475 618h324l-162 431zM948 1800q-19 -48 -52 -88t-75 -68t-90 -43q-48 -16 -98 -16q-51 0 -99 15t-89 43
q-42 28 -74 68q-33 40 -54 89l139 55q23 -57 72 -88q48 -32 105 -32q28 0 55 9q26 9 50 25q23 15 41 37t30 49z" />
    <glyph glyph-name="abreve" unicode="&#x103;" horiz-adv-x="1083" 
d="M870 473l148 -389h-150l-147 389h-352l-146 -389h-149l145 389h-170v141h223l199 523l-96 252h151l19 -52l20 52h152l-96 -252l196 -523h211v-141h-158zM422 614h246l-123 324zM861 1611q-19 -48 -52 -88t-75 -68t-90 -43q-48 -16 -98 -16q-51 0 -99 15t-89 43
q-42 28 -74 68q-33 40 -54 89l139 55q23 -57 72 -88q48 -32 105 -32q28 0 55 9q26 9 50 25q23 15 41 37t30 49z" />
    <glyph glyph-name="Aogonek" unicode="&#x104;" horiz-adv-x="1266" 
d="M1284 -328q-54 -46 -114 -69q-61 -23 -119 -23q-48 0 -91 18q-44 18 -76 49q-33 32 -52 76t-19 95q0 45 14 87q13 42 37 79q24 38 57 70q32 31 70 55l-119 315h-471l-159 -424h-160l160 424h-193v149h248l260 687l-111 292h160l31 -82l31 82h159l-110 -292l258 -687h242
v-149h-185l160 -424q-59 -4 -102 -22q-43 -17 -71 -43q-28 -25 -42 -56q-14 -30 -14 -61q0 -42 25 -64t67 -22q31 0 66 12q34 13 65 41zM637 1049l-180 -476h360z" />
    <glyph glyph-name="aogonek" unicode="&#x105;" horiz-adv-x="1083" 
d="M1104 -244q-54 -46 -114 -69q-61 -23 -120 -23q-48 0 -91 18q-44 18 -76 49q-32 32 -51 75q-19 44 -19 96q0 46 15 90q14 44 40 83q25 38 60 70q34 31 75 54l-88 237h-379l-133 -352h-149l131 352h-156v139h209l213 562l-96 252h151l19 -52l20 52h152l-96 -252l210 -562
h203v-139h-147l131 -352q-53 0 -96 -17q-44 -17 -75 -43q-31 -27 -48 -59t-17 -63q0 -42 25 -64t67 -22q31 0 66 12q35 13 66 41zM545 938l-137 -363h274z" />
    <glyph glyph-name="Cacute" unicode="&#x106;" horiz-adv-x="1296" 
d="M1247 158q-97 -100 -219 -152q-122 -53 -252 -53q-101 0 -194 28q-94 29 -174 82q-81 52 -147 126t-113 164q-48 90 -73 194q-26 103 -26 215q0 103 23 197t66 175q42 81 102 147t134 113q74 46 160 72q85 25 179 25q40 0 81 -5q40 -6 80 -16v82h150v-139q45 -23 85 -50
q40 -28 77 -63l-103 -110q-14 14 -29 26t-30 23v-154h-150v230q-80 24 -159 24q-111 0 -205 -43q-95 -44 -164 -121t-108 -183t-39 -230q0 -139 45 -259q44 -121 122 -210q77 -89 183 -140q105 -51 227 -51q100 0 194 41q94 40 169 117zM518 1597l-82 125l342 226l82 -125z
" />
    <glyph glyph-name="cacute" unicode="&#x107;" horiz-adv-x="1112" 
d="M1063 252q-88 -94 -191 -137q-104 -43 -213 -43q-86 0 -164 25q-79 24 -147 68t-123 106q-55 61 -94 135q-39 73 -60 157q-22 84 -22 174q0 83 20 160q19 77 55 144t87 122q50 54 112 93t134 60q71 21 149 21q32 0 64 -3q31 -3 63 -11v66h139v-117q36 -22 71 -45
q34 -24 71 -53l-101 -107q-23 26 -41 37v-119h-139v193q-62 18 -125 18q-90 0 -167 -36q-78 -36 -134 -98q-57 -63 -89 -146q-32 -84 -32 -179q0 -107 37 -202t101 -166q64 -72 151 -114q86 -42 184 -42q82 0 159 33q76 32 143 104zM426 1341l-82 125l342 226l82 -125z" />
    <glyph glyph-name="Ccaron" unicode="&#x10c;" horiz-adv-x="1296" 
d="M1247 158q-97 -100 -219 -152q-122 -53 -252 -53q-101 0 -194 28q-94 29 -174 82q-81 52 -147 126t-113 164q-48 90 -73 194q-26 103 -26 215q0 103 23 197t66 175q42 81 102 147t134 113q74 46 160 72q85 25 179 25q40 0 81 -5q40 -6 80 -16v82h150v-139q45 -23 85 -50
q40 -28 77 -63l-103 -110q-14 14 -29 26t-30 23v-154h-150v230q-80 24 -159 24q-111 0 -205 -43q-95 -44 -164 -121t-108 -183t-39 -230q0 -139 45 -259q44 -121 122 -210q77 -89 183 -140q105 -51 227 -51q100 0 194 41q94 40 169 117zM647 1591l-328 246h249l79 -59l81 59
h247z" />
    <glyph glyph-name="ccaron" unicode="&#x10d;" horiz-adv-x="1112" 
d="M1063 252q-88 -94 -191 -137q-104 -43 -213 -43q-86 0 -164 25q-79 24 -147 68t-123 106q-55 61 -94 135q-39 73 -60 157q-22 84 -22 174q0 83 20 160q19 77 55 144t87 122q50 54 112 93t134 60q71 21 149 21q32 0 64 -3q31 -3 63 -11v66h139v-117q36 -22 71 -45
q34 -24 71 -53l-101 -107q-23 26 -41 37v-119h-139v193q-62 18 -125 18q-90 0 -167 -36q-78 -36 -134 -98q-57 -63 -89 -146q-32 -84 -32 -179q0 -107 37 -202t101 -166q64 -72 151 -114q86 -42 184 -42q82 0 159 33q76 32 143 104zM562 1347l-328 246h249l79 -59l81 59h247
z" />
    <glyph glyph-name="Dcaron" unicode="&#x10e;" horiz-adv-x="1325" 
d="M1276 764q0 -144 -54 -270q-55 -127 -149 -221q-95 -95 -221 -150t-270 -55h-248v-68h-150v68h-135v149h135v1092h-135v149h135v94h150v-94h248q143 0 269 -55t221 -149q94 -95 149 -221zM1126 764q0 112 -43 211t-117 174q-74 74 -173 117t-211 43h-248v-1092h248
q113 0 212 43t173 118q74 74 117 174zM534 1477l-328 246h249l79 -59l81 59h247z" />
    <glyph glyph-name="dcaron" unicode="&#x10f;" horiz-adv-x="1133" 
d="M1083 727q0 -81 -21 -156t-59 -140q-38 -66 -91 -119q-53 -54 -118 -92q-65 -39 -139 -60q-75 -21 -155 -21h-199v-55h-139v55h-113v142h113v888h-113v142h113v78h139v-78h199q80 0 154 -21t139 -59q65 -39 119 -92q53 -53 91 -118t59 -139zM942 727q0 91 -35 172
q-35 80 -95 140t-140 95q-81 35 -172 35h-199v-888h199q92 0 173 35q80 35 140 96q60 60 95 142zM428 1340l-328 246h249l79 -59l81 59h247z" />
    <glyph glyph-name="Dcroat" unicode="&#x110;" horiz-adv-x="1325" 
d="M1276 764q0 -144 -54 -270q-55 -127 -149 -221q-95 -95 -221 -150t-270 -55h-248v-68h-150v68h-135v149h135v479h-116v150h116v463h-135v149h135v94h150v-94h248q143 0 269 -55t221 -149q94 -95 149 -221zM334 217h248q113 0 212 43t173 118q74 74 117 174q42 99 42 212
q0 112 -43 211t-117 174q-74 74 -173 117t-211 43h-248v-463h110v-150h-110v-479z" />
    <glyph glyph-name="dcroat" unicode="&#x111;" horiz-adv-x="1137" 
d="M1087 727q0 -81 -21 -156t-59 -140q-38 -66 -91 -119q-53 -54 -118 -92q-65 -39 -139 -60q-75 -21 -155 -21h-199v-55h-139v55h-113v142h113v344h-117v149h117v395h-113v142h113v78h139v-78h199q80 0 154 -21t139 -59q65 -39 119 -92q53 -53 91 -118t59 -139zM946 727
q0 91 -35 172q-35 80 -95 140t-140 95q-81 35 -172 35h-199v-395h121v-149h-121v-344h199q92 0 173 35q80 35 140 96q60 60 95 142z" />
    <glyph glyph-name="Eogonek" unicode="&#x118;" horiz-adv-x="1114" 
d="M1214 -264q-54 -47 -114 -70q-60 -22 -119 -22q-48 0 -91 18q-44 18 -76 49q-33 32 -52 75q-19 44 -19 95t18 98q17 47 48 89h-449v-68h-149v68h-162v149h162v252h-162v149h162v691h-162v149h162v94h149v-94h437v-149h-437v-691h437v-149h-437v-252h705v-149
q-34 -8 -65 -26t-55 -43q-24 -24 -38 -55q-14 -30 -14 -63q0 -42 25 -64t67 -22q31 0 66 13q34 13 65 40z" />
    <glyph glyph-name="eogonek" unicode="&#x119;" horiz-adv-x="956" 
d="M1057 -195q-54 -46 -114 -69q-61 -23 -120 -23q-48 0 -91 18q-44 18 -76 49q-32 32 -51 76t-19 95t17 99q17 47 48 89h-327v-55h-142v55h-133v142h133v192h-133v141h133v555h-133v142h133v78h142v-78h362v-142h-362v-555h362v-141h-362v-192h583v-142q-31 -6 -61 -23
q-31 -18 -55 -43q-25 -26 -40 -57q-16 -31 -16 -65q0 -42 25 -64t67 -22q31 0 66 12q35 13 65 41z" />
    <glyph glyph-name="Ecaron" unicode="&#x11a;" horiz-adv-x="1114" 
d="M360 68v-68h-149v68h-162v149h162v252h-162v149h162v691h-162v149h162v94h149v-94h437v-149h-437v-691h437v-149h-437v-252h705v-149h-705zM523 1527l-328 246h249l79 -59l81 59h247z" />
    <glyph glyph-name="ecaron" unicode="&#x11b;" horiz-adv-x="956" 
d="M324 139v-55h-142v55h-133v142h133v192h-133v141h133v555h-133v142h133v78h142v-78h362v-142h-362v-555h362v-141h-362v-192h583v-142h-583zM477 1335l-328 246h249l79 -59l81 59h247z" />
    <glyph glyph-name="Gbreve" unicode="&#x11e;" horiz-adv-x="1436" 
d="M1249 313q-30 -93 -86 -163t-126 -117q-71 -47 -151 -71q-81 -23 -159 -23q-100 0 -189 30t-164 84q-75 53 -135 128q-61 75 -103 164t-64 190q-23 100 -23 206q0 99 20 197q19 98 59 187q39 89 97 165t135 132t172 88t209 32h29v-149h-22q-92 0 -168 -26
q-77 -26 -138 -71q-61 -46 -106 -108q-46 -62 -76 -134q-31 -73 -46 -153t-15 -160q0 -85 17 -166t49 -153q32 -73 79 -134q46 -61 105 -105q58 -45 128 -70t150 -25q52 0 105 14q52 13 100 41q47 28 88 71q41 42 70 99h-494v150h532q2 15 2 30v95h150v-95q0 -15 -2 -30h108
v-150h-137zM1089 1789q-19 -48 -52 -88t-75 -68t-90 -43q-48 -16 -98 -16q-51 0 -99 15t-89 43q-42 28 -74 68q-33 40 -54 89l139 55q23 -57 72 -88q48 -32 105 -32q28 0 55 9q26 9 50 25q23 15 41 37t30 49z" />
    <glyph glyph-name="gbreve" unicode="&#x11f;" horiz-adv-x="1225" 
d="M1059 344q-26 -78 -73 -136q-48 -58 -108 -97t-127 -58q-67 -20 -133 -20q-126 0 -231 55t-180 148t-116 215q-42 122 -42 256q0 82 17 164q16 82 49 157q32 74 81 139q49 64 115 112q66 47 149 74q82 27 181 27h23v-141h-23q-77 0 -140 -21q-64 -21 -114 -58t-87 -87
q-37 -51 -61 -109q-25 -59 -37 -123q-12 -65 -12 -130q0 -107 31 -204t87 -171t135 -118t175 -44q39 0 82 11q43 10 83 32q39 21 72 53q32 32 50 74h-403v141h442q2 11 2 23v80h139v-103h91v-141h-117zM977 1635q-19 -48 -52 -88t-75 -68t-90 -43q-48 -16 -98 -16
q-51 0 -99 15t-89 43q-42 28 -74 68q-33 40 -54 89l139 55q23 -57 72 -88q48 -32 105 -32q28 0 55 9q26 9 50 25q23 15 41 37t30 49z" />
    <glyph glyph-name="Idotaccent" unicode="&#x130;" 
d="M49 0v1552h150v-1552h-150zM222 1690q0 -20 -8 -37t-21 -30t-31 -20q-18 -8 -37 -8t-36 8q-18 7 -31 20t-21 30t-8 37q0 40 28 68t68 28q41 0 69 -28z" />
    <glyph glyph-name="Lacute" unicode="&#x139;" horiz-adv-x="1114" 
d="M360 68v-68h-149v68h-162v149h162v1335h149v-1335h705v-149h-705zM426 1597l-82 125l342 226l82 -125z" />
    <glyph glyph-name="lacute" unicode="&#x13a;" horiz-adv-x="956" 
d="M324 139v-55h-142v55h-133v142h133v1108h142v-1108h583v-142h-583zM382 1358l-82 125l342 226l82 -125z" />
    <glyph glyph-name="Lcaron" unicode="&#x13d;" horiz-adv-x="1114" 
d="M360 68v-68h-149v68h-162v149h162v1335h149v-1335h705v-149h-705zM579 1231l-137 59l166 387l137 -59z" />
    <glyph glyph-name="lcaron" unicode="&#x13e;" horiz-adv-x="948" 
d="M324 139v-55h-142v55h-133v142h133v1108h142v-1108h583v-142h-583zM523 1139l-137 59l166 387l137 -59z" />
    <glyph glyph-name="Lslash" unicode="&#x141;" horiz-adv-x="1192" 
d="M438 68v-68h-149v68h-162v149h162v479l-187 -73l-53 139l240 94v698h149v-641l252 99l55 -138l-307 -120v-537h705v-149h-705z" />
    <glyph glyph-name="lslash" unicode="&#x142;" horiz-adv-x="1024" 
d="M391 57v-57h-141v57h-133v140h133v374l-150 -59l-51 131l201 80v582h141v-529l207 82l51 -131l-258 -102v-428h584v-140h-584z" />
    <glyph glyph-name="Nacute" unicode="&#x143;" horiz-adv-x="1548" 
d="M1309 0l-45 55v-55h-152v240l-608 751v-991h-150v1178l-305 374h193l112 -139v139h150v-323l608 -752v1075h152v-1259l235 -293h-190zM694 1567l-82 125l342 226l82 -125z" />
    <glyph glyph-name="nacute" unicode="&#x144;" horiz-adv-x="1339" 
d="M1110 86l-27 29v-31h-141v203l-489 604v-807h-140v981l-264 324h180l84 -99v99h140v-273l489 -604v877h141v-1049l207 -254h-180zM539 1341l-82 125l342 226l82 -125z" />
    <glyph glyph-name="Ncaron" unicode="&#x147;" horiz-adv-x="1548" 
d="M1309 0l-45 55v-55h-152v240l-608 751v-991h-150v1178l-305 374h193l112 -139v139h150v-323l608 -752v1075h152v-1259l235 -293h-190zM774 1549l-328 246h249l79 -59l81 59h247z" />
    <glyph glyph-name="ncaron" unicode="&#x148;" horiz-adv-x="1339" 
d="M1110 86l-27 29v-31h-141v203l-489 604v-807h-140v981l-264 324h180l84 -99v99h140v-273l489 -604v877h141v-1049l207 -254h-180zM670 1335l-328 246h249l79 -59l81 59h247z" />
    <glyph glyph-name="Ohungarumlaut" unicode="&#x150;" horiz-adv-x="1245" 
d="M1042 197q-41 -62 -89 -108q-49 -46 -103 -76q-54 -31 -112 -47q-58 -15 -116 -15q-83 0 -157 29q-75 30 -139 84t-115 129t-87 167q-36 91 -55 196q-20 105 -20 218q0 171 43 321q43 149 119 261t181 177q105 64 230 64q83 0 158 -29q75 -30 139 -84t115 -129
q51 -76 87 -167q36 -92 56 -197q19 -106 19 -219q0 -79 -9 -157q-10 -79 -29 -152q-20 -74 -49 -141zM917 281q32 48 57 106q24 57 40 121q16 63 24 131q8 67 8 135q0 89 -14 174q-14 84 -40 159q-27 75 -64 138q-38 62 -85 108q-47 45 -103 70t-118 25q-63 0 -119 -25
t-103 -70q-47 -46 -84 -108q-38 -63 -64 -138t-40 -159q-14 -85 -14 -174t14 -173q14 -85 40 -160t64 -137q37 -63 84 -108q47 -46 103 -71t119 -25q82 0 159 45zM794 1632l-141 47l103 302l141 -48zM581 1632l-141 47l101 302l141 -48z" />
    <glyph glyph-name="ohungarumlaut" unicode="&#x151;" horiz-adv-x="1067" 
d="M889 252q-69 -104 -163 -156q-95 -53 -194 -53q-104 0 -192 55q-89 54 -153 148q-65 94 -101 220q-37 126 -37 269t37 269q36 126 101 220q64 94 153 149q88 54 192 54q70 0 134 -24q63 -25 117 -70t98 -108q43 -63 74 -140q30 -77 47 -165q16 -89 16 -185q0 -66 -8 -131
q-9 -66 -25 -128t-40 -119zM772 330q26 39 46 86t34 99q13 51 20 107q7 55 7 111q0 108 -25 208t-71 176t-109 122q-64 45 -142 45q-77 0 -140 -45q-63 -46 -108 -122q-46 -76 -71 -176t-25 -208q0 -109 26 -208q25 -100 71 -175q45 -76 108 -121t139 -45q67 0 129 37z
M695 1432l-141 47l103 302l141 -48zM482 1432l-141 47l101 302l141 -48z" />
    <glyph glyph-name="OE" unicode="&#x152;" horiz-adv-x="1784" 
d="M1030 63v-69h-149v35q-60 -41 -126 -61q-66 -19 -132 -19q-82 0 -157 29t-138 83q-64 53 -115 128q-52 75 -88 166q-37 91 -56 196q-20 105 -20 219t20 220q19 105 56 197q36 91 88 166q51 75 115 129q63 53 138 82q74 29 157 29q66 0 132 -19q66 -20 126 -61v33h149v-92
h436v-149h-436v-693h436v-149h-436v-250h705v-150h-705zM881 463h-162v149h162v693h-162v122q-51 17 -96 17q-64 0 -120 -25q-56 -26 -103 -71t-84 -108q-38 -63 -63 -138q-26 -75 -40 -159q-14 -85 -14 -173q0 -89 14 -173q14 -85 40 -160t64 -137q37 -63 85 -108
q47 -46 103 -71t120 -25q46 0 94 17v100h149l13 14v236z" />
    <glyph glyph-name="oe" unicode="&#x153;" horiz-adv-x="1513" 
d="M879 141v-57h-140v22q-99 -61 -209 -61q-103 0 -191 54t-152 148q-65 93 -101 219q-37 125 -37 269q0 96 17 185q16 88 47 165q30 77 74 140q43 63 97 108q53 45 115 70q62 24 131 24q54 0 107 -15t102 -46v23h140v-78h362v-140h-362v-559h362v-139h-362v-192h585v-140
h-585zM739 473h-135v139h135v559h-135v105q-18 6 -35 8q-18 2 -37 2q-78 0 -141 -45q-64 -46 -109 -122q-45 -77 -69 -176q-25 -100 -25 -208q0 -107 25 -206q24 -99 69 -176t109 -123q63 -46 141 -46q37 0 72 13v84h129l6 8v184z" />
    <glyph glyph-name="Racute" unicode="&#x154;" horiz-adv-x="1137" 
d="M938 0v86q0 70 -27 133q-28 63 -74 110q-47 46 -110 74q-63 27 -133 27h-240v-430h-149v430h-156v150h156v61h-156v150h156v518h-156v149h156v94h149v-94h224q84 0 159 -32q74 -33 130 -88q55 -56 88 -130q32 -75 32 -159t-32 -158q-33 -75 -88 -130q-56 -56 -130 -88
q-75 -32 -159 -32h-224v-61h240q101 0 191 -39t157 -106q67 -68 106 -158t39 -191v-86h-149zM838 1049q0 54 -20 101q-21 47 -56 83q-36 35 -83 56q-47 20 -101 20h-224v-518h224q54 0 101 21q47 20 83 55q35 35 56 82zM434 1542l-82 125l342 226l82 -125z" />
    <glyph glyph-name="racute" unicode="&#x155;" horiz-adv-x="977" 
d="M786 84v80q0 57 -22 107t-59 88q-38 37 -88 59t-107 22h-193v-356h-139v356h-129v142h129v34h-129v140h129v413h-129v142h129v78h139v-78h179q71 0 135 -27q63 -28 111 -75q47 -48 75 -111q27 -64 27 -135q0 -72 -27 -135q-28 -63 -75 -110q-48 -47 -111 -74
q-64 -28 -135 -28h-179v-34h193q85 0 161 -33q76 -34 133 -91t91 -133q33 -76 33 -161v-80h-142zM702 963q0 43 -16 81q-16 37 -44 65t-65 44q-38 16 -81 16h-179v-413h179q43 0 81 17q37 16 65 44t44 66zM379 1367l-82 125l342 226l82 -125z" />
    <glyph glyph-name="Rcaron" unicode="&#x158;" horiz-adv-x="1137" 
d="M938 0v86q0 70 -27 133q-28 63 -74 110q-47 46 -110 74q-63 27 -133 27h-240v-430h-149v430h-156v150h156v61h-156v150h156v518h-156v149h156v94h149v-94h224q84 0 159 -32q74 -33 130 -88q55 -56 88 -130q32 -75 32 -159t-32 -158q-33 -75 -88 -130q-56 -56 -130 -88
q-75 -32 -159 -32h-224v-61h240q101 0 191 -39t157 -106q67 -68 106 -158t39 -191v-86h-149zM838 1049q0 54 -20 101q-21 47 -56 83q-36 35 -83 56q-47 20 -101 20h-224v-518h224q54 0 101 21q47 20 83 55q35 35 56 82zM495 1527l-328 246h249l79 -59l81 59h247z" />
    <glyph glyph-name="rcaron" unicode="&#x159;" horiz-adv-x="977" 
d="M786 84v80q0 57 -22 107t-59 88q-38 37 -88 59t-107 22h-193v-356h-139v356h-129v142h129v34h-129v140h129v413h-129v142h129v78h139v-78h179q71 0 135 -27q63 -28 111 -75q47 -48 75 -111q27 -64 27 -135q0 -72 -27 -135q-28 -63 -75 -110q-48 -47 -111 -74
q-64 -28 -135 -28h-179v-34h193q85 0 161 -33q76 -34 133 -91t91 -133q33 -76 33 -161v-80h-142zM702 963q0 43 -16 81q-16 37 -44 65t-65 44q-38 16 -81 16h-179v-413h179q43 0 81 17q37 16 65 44t44 66zM488 1335l-328 246h249l79 -59l81 59h247z" />
    <glyph glyph-name="Sacute" unicode="&#x15a;" horiz-adv-x="481" 
d="M389 614q22 -52 33 -105q10 -54 10 -108q0 -62 -14 -123t-41 -117t-66 -106t-90 -90l-92 117q75 59 116 143q40 83 40 174q0 81 -33 158l-158 365q-23 52 -34 107q-11 54 -11 108q0 65 15 129q15 63 45 121q29 57 72 108q42 50 98 90l86 -121q-81 -57 -123 -143
q-43 -86 -43 -182q0 -41 8 -80q7 -40 24 -78zM124 1558l-82 125l342 226l82 -125z" />
    <glyph glyph-name="sacute" unicode="&#x15b;" horiz-adv-x="432" 
d="M346 606q19 -43 28 -88q9 -46 9 -92q0 -53 -12 -105t-35 -100q-24 -49 -58 -92q-35 -44 -79 -78l-86 111q63 51 96 119q33 67 33 141q0 67 -27 129l-129 303q-19 43 -28 89q-9 45 -9 91q0 55 13 109t38 104q25 49 63 92q37 43 85 78l82 -110q-69 -51 -105 -122
q-37 -71 -37 -149q0 -32 8 -64q7 -32 19 -61zM86 1362l-82 125l342 226l82 -125z" />
    <glyph glyph-name="Scedilla" unicode="&#x15e;" horiz-adv-x="481" 
d="M330 -238q-6 -36 -23 -67q-17 -30 -42 -52q-26 -21 -58 -34q-33 -12 -70 -12h-176v149h176q39 0 45 37q0 17 -6 29q-7 13 -24 18l-72 20l63 213l-14 19q75 59 116 143q40 83 40 174q0 81 -33 158l-158 365q-23 52 -34 107q-11 54 -11 108q0 65 15 129q15 63 45 121
q29 57 72 108q42 50 98 90l86 -121q-81 -57 -123 -143q-43 -86 -43 -182q0 -41 8 -80q7 -40 24 -78l158 -367q22 -52 33 -105q10 -54 10 -108q0 -102 -37 -198q-37 -97 -106 -174l-27 -90q34 -26 52 -66q18 -39 18 -82v-13z" />
    <glyph glyph-name="scedilla" unicode="&#x15f;" horiz-adv-x="432" 
d="M305 -154q-5 -36 -22 -67q-17 -30 -42 -52q-26 -21 -58 -34q-33 -12 -70 -12h-176v149h176q18 0 30 10t15 27q0 17 -7 29q-7 13 -24 18l-72 20l66 218l-8 10q63 51 96 119q33 67 33 141q0 67 -27 129l-129 303q-19 43 -28 89q-9 45 -9 91q0 55 13 109t38 104q25 49 63 92
q37 43 85 78l82 -110q-69 -51 -105 -122q-37 -71 -37 -149q0 -32 8 -64q7 -32 19 -61l131 -305q19 -43 28 -88q9 -46 9 -92q0 -85 -31 -165q-31 -81 -88 -146l-26 -92q34 -26 52 -66q17 -39 17 -82v-13z" />
    <glyph glyph-name="Scaron" unicode="&#x160;" horiz-adv-x="481" 
d="M389 614q22 -52 33 -105q10 -54 10 -108q0 -62 -14 -123t-41 -117t-66 -106t-90 -90l-92 117q75 59 116 143q40 83 40 174q0 81 -33 158l-158 365q-23 52 -34 107q-11 54 -11 108q0 65 15 129q15 63 45 121q29 57 72 108q42 50 98 90l86 -121q-81 -57 -123 -143
q-43 -86 -43 -182q0 -41 8 -80q7 -40 24 -78zM242 1591l-328 246h249l79 -59l81 59h247z" />
    <glyph glyph-name="scaron" unicode="&#x161;" horiz-adv-x="432" 
d="M346 606q19 -43 28 -88q9 -46 9 -92q0 -53 -12 -105t-35 -100q-24 -49 -58 -92q-35 -44 -79 -78l-86 111q63 51 96 119q33 67 33 141q0 67 -27 129l-129 303q-19 43 -28 89q-9 45 -9 91q0 55 13 109t38 104q25 49 63 92q37 43 85 78l82 -110q-69 -51 -105 -122
q-37 -71 -37 -149q0 -32 8 -64q7 -32 19 -61zM213 1437l-328 246h249l79 -59l81 59h247z" />
    <glyph glyph-name="uni0162" unicode="&#x162;" horiz-adv-x="1300" 
d="M725 1309v-1309h-150v1309h-526v149h526v94h150v-94h526v-149h-526zM635 -483l-137 59l166 387l137 -59z" />
    <glyph glyph-name="uni0163" unicode="&#x163;" horiz-adv-x="1112" 
d="M627 1169v-1085h-142v1085h-436v142h436v78h142v-78h436v-142h-436zM545 -393l-137 59l166 387l137 -59z" />
    <glyph glyph-name="Tcaron" unicode="&#x164;" horiz-adv-x="1300" 
d="M725 1309v-1309h-150v1309h-526v149h526v94h150v-94h526v-149h-526zM649 1591l-328 246h249l79 -59l81 59h247z" />
    <glyph glyph-name="tcaron" unicode="&#x165;" horiz-adv-x="1112" 
d="M627 1169v-1085h-142v1085h-436v142h436v78h142v-78h436v-142h-436zM553 1412l-328 246h249l79 -59l81 59h247z" />
    <glyph glyph-name="Uring" unicode="&#x16e;" horiz-adv-x="993" 
d="M852 68v-68h-150v68h-299q-73 0 -137 28q-65 28 -113 76t-76 113t-28 139v1128h150v-1128q0 -43 16 -81t44 -66t65 -44t79 -16h299v1335h150v-1335h92v-149h-92zM675 1772q0 -41 -16 -77t-43 -63q-28 -27 -64 -42q-37 -16 -78 -16t-77 16q-36 15 -63 42t-43 63t-16 77
q0 42 16 79q16 36 43 63t63 43t77 16t78 -16q36 -16 64 -43q27 -27 43 -63zM588 1772q0 24 -9 45t-24 37q-16 15 -36 24q-21 9 -45 9q-23 0 -44 -9t-37 -24q-16 -16 -25 -37t-9 -45t9 -44q9 -21 25 -36q16 -16 37 -25t44 -9q24 0 45 9q20 9 36 25q15 15 24 36z" />
    <glyph glyph-name="uring" unicode="&#x16f;" horiz-adv-x="858" 
d="M733 139v-55h-141v55h-240q-62 0 -117 24q-56 24 -97 66q-41 41 -65 97q-24 55 -24 118v945h141v-945q0 -35 13 -64q12 -30 34 -52t52 -34q29 -13 63 -13h240v1108h141v-1108h76v-142h-76zM587 1550q0 -41 -16 -77t-43 -63q-28 -27 -64 -42q-37 -16 -78 -16t-77 16
q-36 15 -63 42t-43 63t-16 77q0 42 16 79q16 36 43 63t63 43t77 16t78 -16q36 -16 64 -43q27 -27 43 -63zM500 1550q0 24 -9 45t-24 37q-16 15 -36 24q-21 9 -45 9q-23 0 -44 -9t-37 -24q-16 -16 -25 -37t-9 -45t9 -44q9 -21 25 -36q16 -16 37 -25t44 -9q24 0 45 9
q20 9 36 25q15 15 24 36z" />
    <glyph glyph-name="Uhungarumlaut" unicode="&#x170;" horiz-adv-x="993" 
d="M852 68v-68h-150v68h-299q-73 0 -137 28q-65 28 -113 76t-76 113t-28 139v1128h150v-1128q0 -43 16 -81t44 -66t65 -44t79 -16h299v1335h150v-1335h92v-149h-92zM614 1544l-141 47l103 302l141 -48zM401 1544l-141 47l101 302l141 -48z" />
    <glyph glyph-name="uhungarumlaut" unicode="&#x171;" horiz-adv-x="858" 
d="M733 139v-55h-141v55h-240q-62 0 -117 24q-56 24 -97 66q-41 41 -65 97q-24 55 -24 118v945h141v-945q0 -35 13 -64q12 -30 34 -52t52 -34q29 -13 63 -13h240v1108h141v-1108h76v-142h-76zM555 1381l-141 47l103 302l141 -48zM342 1381l-141 47l101 302l141 -48z" />
    <glyph glyph-name="Ydieresis" unicode="&#x178;" horiz-adv-x="1026" 
d="M846 397v-43q0 -73 -28 -137q-28 -65 -76 -113t-112 -76q-65 -28 -138 -28h-302v150h302q42 0 79 16t65 44t44 65t16 79v43h-293q-73 0 -137 28q-65 28 -113 77q-48 48 -76 113t-28 139v798h150v-798q0 -42 16 -80t44 -66t65 -44q37 -17 79 -17h293v1005h150v-1005h131
v-150h-131zM477 1549v148h148v-148h-148zM266 1549v148h148v-148h-148z" />
    <glyph glyph-name="Zacute" unicode="&#x179;" horiz-adv-x="1153" 
d="M289 68l-37 -68h-168l35 68h-70v149h148l577 1186h-553v149h631l45 82h168l-43 -82h57v-149h-137l-575 -1186h737v-149h-815zM446 1597l-82 125l342 226l82 -125z" />
    <glyph glyph-name="zacute" unicode="&#x17a;" horiz-adv-x="989" 
d="M260 139l-33 -55h-155l28 55h-51v142h123l471 968h-453v140h527l37 67h159l-34 -67h41v-140h-117l-469 -968h606v-142h-680zM398 1426l-82 125l342 226l82 -125z" />
    <glyph glyph-name="Zdotaccent" unicode="&#x17b;" horiz-adv-x="1153" 
d="M289 68l-37 -68h-168l35 68h-70v149h148l577 1186h-553v149h631l45 82h168l-43 -82h57v-149h-137l-575 -1186h737v-149h-815zM672 1690q0 -20 -8 -37t-21 -30t-31 -20q-18 -8 -37 -8t-36 8q-18 7 -31 20t-21 30t-8 37q0 40 28 68t68 28q41 0 69 -28z" />
    <glyph glyph-name="zdotaccent" unicode="&#x17c;" horiz-adv-x="989" 
d="M260 139l-33 -55h-155l28 55h-51v142h123l471 968h-453v140h527l37 67h159l-34 -67h41v-140h-117l-469 -968h606v-142h-680zM620 1527q0 -20 -8 -37t-21 -30t-31 -20q-18 -8 -37 -8t-36 8q-18 7 -31 20t-21 30t-8 37q0 40 28 68t68 28q41 0 69 -28z" />
    <glyph glyph-name="Zcaron" unicode="&#x17d;" horiz-adv-x="1153" 
d="M289 68l-37 -68h-168l35 68h-70v149h148l577 1186h-553v149h631l45 82h168l-43 -82h57v-149h-137l-575 -1186h737v-149h-815zM606 1583l-328 246h249l79 -59l81 59h247z" />
    <glyph glyph-name="zcaron" unicode="&#x17e;" horiz-adv-x="989" 
d="M260 139l-33 -55h-155l28 55h-51v142h123l471 968h-453v140h527l37 67h159l-34 -67h41v-140h-117l-469 -968h606v-142h-680zM541 1407l-328 246h249l79 -59l81 59h247z" />
    <glyph glyph-name="florin" unicode="&#x192;" horiz-adv-x="1649" 
d="M1436 170q-51 -51 -119 -81q-69 -30 -143 -30q-80 -43 -173 -43h-22q-73 -34 -154 -34q-82 0 -155 34h-23q-91 0 -172 43q-74 0 -143 30t-117 81q-36 26 -68 58q-33 32 -57 69q-24 36 -38 78q-15 42 -15 88q0 68 31 128q31 59 79 105q-23 47 -37 97q-14 49 -14 100
q0 112 59 211q58 98 158 172q99 72 230 114t282 42q150 0 282 -42q131 -42 230 -114q100 -74 159 -172q58 -99 58 -211q0 -51 -14 -100q-14 -50 -39 -97q48 -46 80 -105q31 -60 31 -128q0 -46 -14 -88q-15 -42 -39 -78q-24 -37 -56 -69zM1239 109q47 9 89 32t74 58
q31 34 50 78q18 43 18 94q0 40 -12 79q-13 38 -39 70q-2 5 -3 8t-1 7q0 8 7 14q6 6 14 6q3 0 8 -2q5 -3 8 -8q29 -37 44 -81q15 -45 15 -93q0 -49 -12 -88q32 37 53 82t21 98q0 63 -32 118q-32 54 -79 97q-4 4 -4 14q0 2 1 4t1 4q25 47 38 95q13 47 13 98q0 103 -52 193
q-52 89 -146 157q-94 69 -219 110q-125 40 -269 40q-143 0 -268 -40q-126 -41 -219 -110q-93 -68 -147 -157q-54 -90 -54 -193q0 -51 14 -98q13 -48 39 -95q3 -2 3 -6q0 -5 -2 -9q-2 -5 -5 -7q-46 -43 -78 -97q-32 -55 -32 -118q0 -53 22 -98q21 -45 52 -82q-11 41 -11 88
q0 48 15 93q15 44 43 81q10 10 18 10q6 0 14 -6q7 -6 7 -14q0 -5 -7 -15q-26 -32 -38 -70q-13 -39 -13 -79q0 -51 19 -94q18 -44 50 -78q32 -35 74 -58t89 -32q-45 40 -73 96q-28 55 -28 121q0 51 18 98q18 46 50 86q10 10 16 10q8 0 15 -6q6 -7 6 -16q0 -7 -6 -13
q-28 -34 -43 -75t-15 -84q0 -54 21 -100q20 -46 55 -80q34 -35 80 -57q45 -23 96 -30q-53 42 -84 102q-31 59 -31 130q0 11 6 17q5 5 13 5t14 -5q6 -6 6 -17q0 -60 26 -110q25 -50 67 -85q42 -36 96 -56q53 -20 110 -20q56 0 110 20q53 20 95 56q41 35 67 85q25 50 25 110
q0 11 7 17q6 5 14 5t14 -5q6 -6 6 -17q0 -71 -32 -130q-32 -60 -84 -102q51 7 97 30q45 22 80 57q35 34 56 80q20 46 20 100q0 43 -15 84t-44 75q-2 3 -2 6v7q0 9 5 16q4 6 13 6q8 0 15 -10q32 -40 50 -86q17 -47 17 -98q0 -66 -27 -121zM940 811v-15q0 -6 -2 -14q6 2 14 2
h17q21 0 44 -4q23 -5 42 -14q19 -10 33 -26q13 -16 16 -38q22 10 50 14q28 3 54 3q32 0 62 -8t53 -23q23 -16 37 -40t14 -56q0 -17 -5 -32q-5 -16 -13 -30q-3 -5 -8 -7q-6 -3 -11 -3q-8 0 -14 7q-6 6 -6 14q0 6 6 12q6 9 9 18q3 8 3 21q0 38 -31 62t-77 24q-48 0 -86 -13
t-65 -32t-41 -41q-15 -23 -15 -41q0 -11 3 -22t12 -20t26 -14q16 -6 43 -6q15 0 30 3t29 6q2 2 4 2h4q21 0 21 -23q-3 -32 -21 -61q-18 -30 -47 -51q-26 -20 -61 -33q-36 -13 -74 -13q-46 0 -90 19q-45 18 -74 53q-31 -35 -74 -53q-44 -19 -89 -19q-41 0 -75 13t-63 33
q-26 21 -44 51q-18 29 -23 61q0 11 6 17t14 6h2q2 0 4 -2q16 -3 31 -6t31 -3q28 0 46 6q17 5 27 14q9 9 12 20t3 22q0 18 -15 40t-42 42q-28 19 -68 32t-90 13q-21 0 -39 -6q-19 -7 -33 -18q-15 -11 -23 -27t-8 -35q0 -13 3 -21q3 -9 10 -18q4 -8 4 -12q0 -8 -6 -14
q-7 -7 -15 -7q-11 0 -18 10q-8 14 -13 30q-6 15 -6 32q0 32 14 56t37 40q23 15 54 23q30 8 63 8q25 0 54 -3q29 -4 49 -14q3 22 17 38q13 16 33 26q19 9 41 14q22 4 42 4h17q8 0 18 -2q-2 8 -2 17v18q0 25 3 48q2 23 7 40q10 37 22 37q19 0 25 -37q3 -11 5 -23q1 -12 3 -26
l-37 -45h39q0 -14 -1 -28q-2 -15 -5 -27q17 -11 27 -27t10 -35q0 -35 -18 -52q-18 -18 -41 -28q-23 -11 -41 -23q-19 -12 -19 -28q0 -18 14 -31q13 -13 34 -21q20 -8 44 -11q23 -4 43 -4t44 4q24 3 45 11q20 8 34 21q13 13 13 31q0 16 -18 28t-44 23q-23 10 -41 27
q-18 16 -18 53q0 19 10 35t27 27q-4 12 -5 28q-2 15 -2 33q0 25 3 48t8 40q6 17 11 27t13 10t14 -10q5 -10 11 -27l8 -51l-39 -43h41zM965 498q-15 -12 -33 -19q-18 -8 -36 -13q-19 -5 -37 -7q-19 -2 -34 -2t-33 2q-19 2 -37 7q-19 5 -36 13q-18 7 -31 19q-32 -23 -69 -36
t-74 -13q-11 0 -20 1q-10 1 -21 3q20 -45 64 -69t94 -24q42 0 82 19t63 57q8 8 18 8q5 0 10 -1q5 -2 7 -7q21 -38 63 -57q41 -19 84 -19q23 0 47 6t45 18t37 29t25 40q-8 -2 -18 -3t-21 -1q-37 0 -73 13zM678 760q-50 0 -78 -23q-12 -9 -20 -19q-9 -11 -9 -24q0 -14 9 -26
q8 -12 20 -21q14 -8 34 -14q19 -6 44 -6q23 0 43 6q19 6 33 14q14 9 22 21t8 26q0 13 -8 24q-8 10 -22 19zM973 760q-47 0 -78 -23q-12 -9 -20 -19q-9 -11 -9 -24q0 -14 9 -26q8 -12 20 -21q15 -8 35 -14t43 -6t43 6q19 6 33 14q14 9 22 21t8 26q0 13 -8 24q-8 10 -22 19z
M670 1059q-53 -12 -98 -29q-45 -18 -78 -44t-51 -61q-19 -36 -19 -83q0 -16 3 -29q3 -14 3 -33q0 -9 -6 -14q-6 -6 -14 -6q-16 0 -19 16q-6 34 -6 66q0 68 26 130t74 113q-37 22 -66 57t-38 77v8q0 9 6 14q6 4 12 4q7 0 12 -3q5 -4 7 -15q8 -32 28 -57q19 -25 46 -42
q26 -17 57 -26q31 -10 63 -10q29 0 58 9q29 8 54 24q25 15 45 39q19 23 28 53q3 6 8 8t10 2q8 0 15 -2q6 -2 8 -8q9 -30 28 -53q19 -24 44 -39q25 -16 55 -24q29 -9 59 -9q31 0 62 10q31 9 57 26t45 42t26 57q2 11 9 15q6 3 12 3t12 -4q6 -5 6 -14v-8q-9 -41 -34 -73
q-25 -33 -60 -54q50 -51 78 -115q27 -64 27 -135q0 -17 -1 -33t-3 -33q-7 -16 -21 -16q-9 0 -15 6q-7 6 -7 18q3 16 6 30q2 14 2 28q0 49 -16 85q-17 36 -45 62q-29 25 -68 41t-84 25q-29 4 -57 12t-54 21q-26 12 -48 31q-22 18 -38 44q-23 -40 -61 -66z" />
    <glyph glyph-name="uni0218" unicode="&#x218;" horiz-adv-x="481" 
d="M389 614q22 -52 33 -105q10 -54 10 -108q0 -62 -14 -123t-41 -117t-66 -106t-90 -90l-92 117q75 59 116 143q40 83 40 174q0 81 -33 158l-158 365q-23 52 -34 107q-11 54 -11 108q0 65 15 129q15 63 45 121q29 57 72 108q42 50 98 90l86 -121q-81 -57 -123 -143
q-43 -86 -43 -182q0 -41 8 -80q7 -40 24 -78zM225 -483l-137 59l166 387l137 -59z" />
    <glyph glyph-name="uni0219" unicode="&#x219;" horiz-adv-x="432" 
d="M346 606q19 -43 28 -88q9 -46 9 -92q0 -53 -12 -105t-35 -100q-24 -49 -58 -92q-35 -44 -79 -78l-86 111q63 51 96 119q33 67 33 141q0 67 -27 129l-129 303q-19 43 -28 89q-9 45 -9 91q0 55 13 109t38 104q25 49 63 92q37 43 85 78l82 -110q-69 -51 -105 -122
q-37 -71 -37 -149q0 -32 8 -64q7 -32 19 -61zM191 -411l-137 59l166 387l137 -59z" />
    <glyph glyph-name="circumflex" unicode="&#x2c6;" horiz-adv-x="754" 
d="M616 1339l-239 179l-240 -179l-88 119l328 246l328 -246z" />
    <glyph glyph-name="caron" unicode="&#x2c7;" horiz-adv-x="754" 
d="M377 1335l-328 246h249l79 -59l81 59h247z" />
    <glyph glyph-name="breve" unicode="&#x2d8;" horiz-adv-x="729" 
d="M680 1544q-19 -48 -52 -88t-75 -68t-90 -43q-48 -16 -98 -16q-51 0 -99 15t-89 43q-42 28 -74 68q-33 40 -54 89l139 55q23 -57 72 -88q48 -32 105 -32q28 0 55 9q26 9 50 25q23 15 41 37t30 49z" />
    <glyph glyph-name="dotaccent" unicode="&#x2d9;" horiz-adv-x="291" 
d="M242 1434q0 -20 -8 -37t-21 -30t-31 -20q-18 -8 -37 -8t-36 8q-18 7 -31 20t-21 30t-8 37q0 40 28 68t68 28q41 0 69 -28z" />
    <glyph glyph-name="ring" unicode="&#x2da;" horiz-adv-x="498" 
d="M449 1546q0 -41 -16 -77t-43 -63q-28 -27 -64 -42q-37 -16 -78 -16t-77 16q-36 15 -63 42t-43 63t-16 77q0 42 16 79q16 36 43 63t63 43t77 16t78 -16q36 -16 64 -43q27 -27 43 -63zM362 1546q0 24 -9 45t-24 37q-16 15 -36 24q-21 9 -45 9q-23 0 -44 -9t-37 -24
q-16 -16 -25 -37t-9 -45t9 -44q9 -21 25 -36q16 -16 37 -25t44 -9q24 0 45 9q20 9 36 25q15 15 24 36z" />
    <glyph glyph-name="ogonek" unicode="&#x2db;" horiz-adv-x="569" 
d="M520 -328q-54 -46 -114 -69t-119 -23q-48 0 -91 18q-44 18 -76 49q-33 32 -52 76t-19 95q0 59 24 114t64 101q40 45 93 77q52 32 110 44l29 -148q-31 -6 -61 -24q-31 -17 -55 -43q-24 -25 -39 -56t-15 -65q0 -42 25 -64t67 -22q31 0 66 12q34 13 65 41z" />
    <glyph glyph-name="tilde" unicode="&#x2dc;" horiz-adv-x="616" 
d="M567 1559q0 -37 -11 -72q-11 -36 -33 -63q-22 -28 -54 -45q-33 -17 -76 -17q-9 0 -19 1q-10 0 -20 3l-129 31q-18 0 -22 -13q-4 -14 -4 -32h-150q0 34 11 69q10 35 31 63q21 27 54 45q32 17 76 17q11 0 21 -1q9 -1 18 -3l129 -31q2 0 3 -1t3 -1q14 0 19 17q4 16 4 33h149
z" />
    <glyph glyph-name="hungarumlaut" unicode="&#x2dd;" horiz-adv-x="555" 
d="M403 1339l-141 47l103 302l141 -48zM190 1339l-141 47l101 302l141 -48z" />
    <glyph glyph-name="uni0326" unicode="&#x326;" horiz-adv-x="401" 
d="M186 -483l-137 59l166 387l137 -59z" />
    <glyph glyph-name="endash" unicode="&#x2013;" horiz-adv-x="1090" 
d="M49 737v150h991v-150h-991z" />
    <glyph glyph-name="emdash" unicode="&#x2014;" horiz-adv-x="2114" 
d="M49 737v150h2015v-150h-2015z" />
    <glyph glyph-name="quoteleft" unicode="&#x2018;" horiz-adv-x="401" 
d="M186 1196l-137 59l166 387l137 -59z" />
    <glyph glyph-name="quoteright" unicode="&#x2019;" horiz-adv-x="401" 
d="M186 1196l-137 59l166 387l137 -59z" />
    <glyph glyph-name="quotesinglbase" unicode="&#x201a;" horiz-adv-x="401" 
d="M186 -156l-137 60l166 387l137 -60z" />
    <glyph glyph-name="quotedblleft" unicode="&#x201c;" horiz-adv-x="627" 
d="M412 1155l-138 59l166 388l138 -60zM186 1196l-137 59l166 387l137 -59z" />
    <glyph glyph-name="quotedblright" unicode="&#x201d;" horiz-adv-x="627" 
d="M412 1155l-138 59l166 388l138 -60zM186 1196l-137 59l166 387l137 -59z" />
    <glyph glyph-name="quotedblbase" unicode="&#x201e;" horiz-adv-x="647" 
d="M432 -197l-137 60l166 387l137 -60zM186 -156l-137 60l166 387l137 -60z" />
    <glyph glyph-name="dagger" unicode="&#x2020;" horiz-adv-x="819" 
d="M483 1094v-1309h-149v1309h-285v149h285v305h149v-305h287v-149h-287z" />
    <glyph glyph-name="daggerdbl" unicode="&#x2021;" horiz-adv-x="819" 
d="M483 90v-305h-149v305h-285v150h285v854h-285v149h285v305h149v-305h287v-149h-287v-854h287v-150h-287z" />
    <glyph glyph-name="bullet" unicode="&#x2022;" horiz-adv-x="451" 
d="M401 770q0 -36 -14 -67q-14 -32 -38 -56t-56 -37q-32 -14 -68 -14t-68 14q-32 13 -56 37t-38 56q-14 31 -14 67t14 68t38 56t56 38t68 14t68 -14t56 -38t38 -56z" />
    <glyph glyph-name="ellipsis" unicode="&#x2026;" horiz-adv-x="760" 
d="M561 0v170h150v-170h-150zM315 0v170h150v-170h-150zM49 0v170h150v-170h-150z" />
    <glyph glyph-name="perthousand" unicode="&#x2030;" horiz-adv-x="2435" 
d="M2298 186q-50 -74 -117 -110q-68 -37 -139 -37q-75 0 -137 38q-63 37 -108 102q-46 64 -71 151q-26 87 -26 186q0 100 26 188q26 87 72 152t109 102q62 37 135 37q75 0 138 -37q63 -38 109 -103q45 -65 71 -152t26 -187q0 -90 -21 -176zM2175 270q31 48 47 113t16 133
q0 64 -14 124q-14 59 -39 105q-26 46 -61 74q-36 27 -80 27t-80 -27q-36 -28 -61 -74q-26 -46 -40 -105q-14 -60 -14 -124t14 -123t40 -104q25 -46 61 -73q36 -28 80 -28q35 0 69 20zM1561 186q-50 -74 -117 -110q-68 -37 -139 -37q-75 0 -137 38q-63 37 -108 102
q-46 64 -71 151q-26 87 -26 186q0 100 26 188q26 87 72 152t109 102q62 37 135 37q74 0 137 -37q63 -38 109 -103t72 -152t26 -187q0 -90 -21 -176zM1438 270q31 48 47 113t16 133q0 64 -14 124q-14 59 -39 105q-26 46 -62 74q-36 27 -79 27q-44 0 -80 -27q-36 -28 -61 -74
q-26 -46 -40 -105q-14 -60 -14 -124t14 -123t40 -104q25 -46 61 -73q36 -28 80 -28q35 0 69 20zM604 -43l-139 53l592 1524l139 -53zM647 694q-49 -75 -116 -112q-68 -37 -140 -37q-73 0 -135 37q-63 37 -109 102q-46 64 -72 152q-26 87 -26 188q0 100 26 188q26 87 72 151
t109 101q62 37 135 37q74 0 137 -37t109 -101q46 -65 72 -152t26 -187q0 -91 -21 -177zM524 776q31 48 48 114q16 65 16 134q0 63 -13 122q-14 59 -39 105q-26 46 -62 74q-36 27 -81 27t-81 -28t-61 -74t-38 -105q-14 -60 -14 -123q0 -64 14 -123t40 -104q25 -46 61 -73
q35 -28 79 -28q35 0 69 20z" />
    <glyph glyph-name="guilsinglleft" unicode="&#x2039;" horiz-adv-x="463" 
d="M293 481l-244 330l244 328l121 -88l-178 -240l178 -240z" />
    <glyph glyph-name="guilsinglright" unicode="&#x203a;" horiz-adv-x="463" 
d="M49 571l178 240l-178 240l121 88l244 -328l-244 -330z" />
    <glyph glyph-name="Euro" unicode="&#x20ac;" horiz-adv-x="1313" 
d="M1264 227q-84 -89 -198 -138q-114 -50 -235 -50q-104 0 -203 36t-183 100q-84 63 -147 152q-64 88 -97 193h-150l68 150h49q0 14 -1 28q-1 13 -1 25h-117l68 149h61q22 111 80 203q57 92 137 158t177 103q97 36 200 36q59 0 117 -11t115 -34l57 125l135 -61l-61 -134
q20 -14 38 -28q17 -14 35 -31l-102 -108q-8 8 -17 15t-18 13l-67 -151l-138 63l76 162q-85 31 -168 31q-75 0 -145 -24q-71 -25 -129 -71q-59 -46 -102 -110q-44 -65 -66 -146h629l-70 -149h-576q0 -12 1 -25q1 -14 3 -28h547l-67 -150h-441q32 -74 82 -135q49 -61 111 -104
q61 -44 132 -68q71 -25 148 -25q88 0 173 37q85 36 151 105z" />
    <glyph glyph-name="trademark" unicode="&#x2122;" horiz-adv-x="1184" 
d="M1047 958l-72 302l-146 -328l-145 328l-72 -302h-88l105 431l-78 176h92l19 -39l10 39h86l-41 -168l112 -254l111 254l-39 168h86l10 -39l19 39h92l-78 -176l105 -431h-88zM326 1436v-478h-86v478h-191v86h191v43h86v-43h190v-86h-190z" />
    <glyph glyph-name="minus" unicode="&#x2212;" horiz-adv-x="1206" 
d="M49 543v149h1108v-149h-1108z" />
    <glyph glyph-name="uni2215" unicode="&#x2215;" horiz-adv-x="1102" 
d="M174 -29h-125l885 1581h119z" />
    <glyph glyph-name="i.aalt" horiz-adv-x="240" 
d="M49 84v1305h141v-1305h-141zM217 1543q0 -20 -8 -37t-21 -30t-31 -20q-18 -8 -37 -8t-36 8q-18 7 -31 20t-21 30t-8 37q0 40 28 68t68 28q41 0 69 -28z" />
    </font>
</defs>
</svg>
